G04 EAGLE Gerber RS-274X export*
G75*
%MOMM*%
%FSLAX34Y34*%
%LPD*%
%INTop Copper*%
%IPPOS*%
%AMOC8*
5,1,8,0,0,1.08239X$1,22.5*%
G01*
%ADD10C,2.540000*%
%ADD11C,2.571600*%
%ADD12C,3.810000*%
%ADD13C,1.778000*%
%ADD14C,0.152400*%

G36*
X1473220Y-758D02*
X1473220Y-758D01*
X1473239Y-760D01*
X1473341Y-738D01*
X1473443Y-722D01*
X1473460Y-712D01*
X1473480Y-708D01*
X1473569Y-655D01*
X1473660Y-606D01*
X1473674Y-592D01*
X1473691Y-582D01*
X1473758Y-503D01*
X1473830Y-428D01*
X1473838Y-410D01*
X1473851Y-395D01*
X1473890Y-299D01*
X1473933Y-205D01*
X1473935Y-185D01*
X1473943Y-167D01*
X1473961Y0D01*
X1473961Y482033D01*
X1473950Y482104D01*
X1473948Y482175D01*
X1473930Y482224D01*
X1473922Y482276D01*
X1473888Y482339D01*
X1473863Y482406D01*
X1473831Y482447D01*
X1473806Y482493D01*
X1473755Y482542D01*
X1473710Y482598D01*
X1473666Y482627D01*
X1473628Y482662D01*
X1473563Y482693D01*
X1473503Y482731D01*
X1473452Y482744D01*
X1473405Y482766D01*
X1473334Y482774D01*
X1473264Y482791D01*
X1473212Y482787D01*
X1473161Y482793D01*
X1473090Y482778D01*
X1473019Y482772D01*
X1472971Y482752D01*
X1472920Y482741D01*
X1472859Y482704D01*
X1472793Y482676D01*
X1472737Y482631D01*
X1472709Y482615D01*
X1472694Y482597D01*
X1472662Y482571D01*
X1469635Y479544D01*
X1461526Y474863D01*
X1452482Y472439D01*
X985918Y472439D01*
X976874Y474863D01*
X968765Y479544D01*
X962144Y486165D01*
X957463Y494274D01*
X955039Y503318D01*
X955039Y690482D01*
X957463Y699526D01*
X962144Y707635D01*
X968765Y714256D01*
X976874Y718937D01*
X985918Y721361D01*
X1452482Y721361D01*
X1461526Y718937D01*
X1469635Y714256D01*
X1472662Y711229D01*
X1472720Y711187D01*
X1472772Y711138D01*
X1472791Y711129D01*
X1472803Y711118D01*
X1472832Y711106D01*
X1472861Y711085D01*
X1472930Y711064D01*
X1472995Y711034D01*
X1473018Y711031D01*
X1473032Y711026D01*
X1473066Y711022D01*
X1473097Y711013D01*
X1473140Y711014D01*
X1473198Y711008D01*
X1473200Y711008D01*
X1473213Y711010D01*
X1473239Y711007D01*
X1473290Y711018D01*
X1473342Y711019D01*
X1473400Y711040D01*
X1473443Y711047D01*
X1473455Y711054D01*
X1473480Y711059D01*
X1473524Y711086D01*
X1473573Y711104D01*
X1473621Y711141D01*
X1473660Y711162D01*
X1473670Y711173D01*
X1473691Y711185D01*
X1473725Y711225D01*
X1473765Y711257D01*
X1473797Y711307D01*
X1473830Y711341D01*
X1473836Y711355D01*
X1473851Y711372D01*
X1473870Y711421D01*
X1473898Y711464D01*
X1473912Y711519D01*
X1473933Y711564D01*
X1473935Y711581D01*
X1473943Y711600D01*
X1473951Y711672D01*
X1473959Y711703D01*
X1473957Y711726D01*
X1473961Y711767D01*
X1473961Y736600D01*
X1473958Y736620D01*
X1473960Y736639D01*
X1473938Y736741D01*
X1473922Y736843D01*
X1473912Y736860D01*
X1473908Y736880D01*
X1473855Y736969D01*
X1473806Y737060D01*
X1473792Y737074D01*
X1473782Y737091D01*
X1473703Y737158D01*
X1473628Y737230D01*
X1473610Y737238D01*
X1473595Y737251D01*
X1473499Y737290D01*
X1473405Y737333D01*
X1473385Y737335D01*
X1473367Y737343D01*
X1473200Y737361D01*
X0Y737361D01*
X-20Y737358D01*
X-39Y737360D01*
X-141Y737338D01*
X-243Y737322D01*
X-260Y737312D01*
X-280Y737308D01*
X-369Y737255D01*
X-460Y737206D01*
X-474Y737192D01*
X-491Y737182D01*
X-558Y737103D01*
X-630Y737028D01*
X-638Y737010D01*
X-651Y736995D01*
X-690Y736899D01*
X-733Y736805D01*
X-735Y736785D01*
X-743Y736767D01*
X-761Y736600D01*
X-761Y0D01*
X-758Y-20D01*
X-760Y-39D01*
X-738Y-141D01*
X-722Y-243D01*
X-712Y-260D01*
X-708Y-280D01*
X-655Y-369D01*
X-606Y-460D01*
X-592Y-474D01*
X-582Y-491D01*
X-503Y-558D01*
X-428Y-630D01*
X-410Y-638D01*
X-395Y-651D01*
X-299Y-690D01*
X-205Y-733D01*
X-185Y-735D01*
X-167Y-743D01*
X0Y-761D01*
X1473200Y-761D01*
X1473220Y-758D01*
G37*
G36*
X1017544Y492764D02*
X1017544Y492764D01*
X1017563Y492762D01*
X1017665Y492784D01*
X1017767Y492800D01*
X1017784Y492810D01*
X1017804Y492814D01*
X1017893Y492867D01*
X1017984Y492916D01*
X1017998Y492930D01*
X1018015Y492940D01*
X1018082Y493019D01*
X1018154Y493094D01*
X1018162Y493112D01*
X1018175Y493127D01*
X1018214Y493223D01*
X1018257Y493317D01*
X1018259Y493337D01*
X1018267Y493355D01*
X1018285Y493522D01*
X1018285Y497372D01*
X1019871Y501200D01*
X1022800Y504129D01*
X1026628Y505715D01*
X1030772Y505715D01*
X1034600Y504129D01*
X1037529Y501200D01*
X1039115Y497372D01*
X1039115Y493522D01*
X1039118Y493502D01*
X1039116Y493483D01*
X1039138Y493381D01*
X1039154Y493279D01*
X1039164Y493262D01*
X1039168Y493242D01*
X1039221Y493153D01*
X1039270Y493062D01*
X1039284Y493048D01*
X1039294Y493031D01*
X1039373Y492964D01*
X1039448Y492892D01*
X1039466Y492884D01*
X1039481Y492871D01*
X1039577Y492832D01*
X1039671Y492789D01*
X1039691Y492787D01*
X1039709Y492779D01*
X1039876Y492761D01*
X1042924Y492761D01*
X1042944Y492764D01*
X1042963Y492762D01*
X1043065Y492784D01*
X1043167Y492800D01*
X1043184Y492810D01*
X1043204Y492814D01*
X1043293Y492867D01*
X1043384Y492916D01*
X1043398Y492930D01*
X1043415Y492940D01*
X1043482Y493019D01*
X1043554Y493094D01*
X1043562Y493112D01*
X1043575Y493127D01*
X1043614Y493223D01*
X1043657Y493317D01*
X1043659Y493337D01*
X1043667Y493355D01*
X1043685Y493522D01*
X1043685Y497372D01*
X1045271Y501200D01*
X1048200Y504129D01*
X1052028Y505715D01*
X1056172Y505715D01*
X1060000Y504129D01*
X1062929Y501200D01*
X1064515Y497372D01*
X1064515Y493522D01*
X1064518Y493502D01*
X1064516Y493483D01*
X1064538Y493381D01*
X1064554Y493279D01*
X1064564Y493262D01*
X1064568Y493242D01*
X1064621Y493153D01*
X1064670Y493062D01*
X1064684Y493048D01*
X1064694Y493031D01*
X1064773Y492964D01*
X1064848Y492892D01*
X1064866Y492884D01*
X1064881Y492871D01*
X1064977Y492832D01*
X1065071Y492789D01*
X1065091Y492787D01*
X1065109Y492779D01*
X1065276Y492761D01*
X1068324Y492761D01*
X1068344Y492764D01*
X1068363Y492762D01*
X1068465Y492784D01*
X1068567Y492800D01*
X1068584Y492810D01*
X1068604Y492814D01*
X1068693Y492867D01*
X1068784Y492916D01*
X1068798Y492930D01*
X1068815Y492940D01*
X1068882Y493019D01*
X1068954Y493094D01*
X1068962Y493112D01*
X1068975Y493127D01*
X1069014Y493223D01*
X1069057Y493317D01*
X1069059Y493337D01*
X1069067Y493355D01*
X1069085Y493522D01*
X1069085Y497372D01*
X1070671Y501200D01*
X1073600Y504129D01*
X1077428Y505715D01*
X1081572Y505715D01*
X1085400Y504129D01*
X1088329Y501200D01*
X1089915Y497372D01*
X1089915Y493522D01*
X1089918Y493502D01*
X1089916Y493483D01*
X1089938Y493381D01*
X1089954Y493279D01*
X1089964Y493262D01*
X1089968Y493242D01*
X1090021Y493153D01*
X1090070Y493062D01*
X1090084Y493048D01*
X1090094Y493031D01*
X1090173Y492964D01*
X1090248Y492892D01*
X1090266Y492884D01*
X1090281Y492871D01*
X1090377Y492832D01*
X1090471Y492789D01*
X1090491Y492787D01*
X1090509Y492779D01*
X1090676Y492761D01*
X1093724Y492761D01*
X1093744Y492764D01*
X1093763Y492762D01*
X1093865Y492784D01*
X1093967Y492800D01*
X1093984Y492810D01*
X1094004Y492814D01*
X1094093Y492867D01*
X1094184Y492916D01*
X1094198Y492930D01*
X1094215Y492940D01*
X1094282Y493019D01*
X1094354Y493094D01*
X1094362Y493112D01*
X1094375Y493127D01*
X1094414Y493223D01*
X1094457Y493317D01*
X1094459Y493337D01*
X1094467Y493355D01*
X1094485Y493522D01*
X1094485Y497372D01*
X1096071Y501200D01*
X1099000Y504129D01*
X1102828Y505715D01*
X1106972Y505715D01*
X1110800Y504129D01*
X1113729Y501200D01*
X1115315Y497372D01*
X1115315Y493522D01*
X1115318Y493502D01*
X1115316Y493483D01*
X1115338Y493381D01*
X1115354Y493279D01*
X1115364Y493262D01*
X1115368Y493242D01*
X1115421Y493153D01*
X1115470Y493062D01*
X1115484Y493048D01*
X1115494Y493031D01*
X1115573Y492964D01*
X1115648Y492892D01*
X1115666Y492884D01*
X1115681Y492871D01*
X1115777Y492832D01*
X1115871Y492789D01*
X1115891Y492787D01*
X1115909Y492779D01*
X1116076Y492761D01*
X1119124Y492761D01*
X1119144Y492764D01*
X1119163Y492762D01*
X1119265Y492784D01*
X1119367Y492800D01*
X1119384Y492810D01*
X1119404Y492814D01*
X1119493Y492867D01*
X1119584Y492916D01*
X1119598Y492930D01*
X1119615Y492940D01*
X1119682Y493019D01*
X1119754Y493094D01*
X1119762Y493112D01*
X1119775Y493127D01*
X1119814Y493223D01*
X1119857Y493317D01*
X1119859Y493337D01*
X1119867Y493355D01*
X1119885Y493522D01*
X1119885Y497372D01*
X1121471Y501200D01*
X1124400Y504129D01*
X1128228Y505715D01*
X1132372Y505715D01*
X1136200Y504129D01*
X1139129Y501200D01*
X1140715Y497372D01*
X1140715Y493522D01*
X1140718Y493502D01*
X1140716Y493483D01*
X1140738Y493381D01*
X1140754Y493279D01*
X1140764Y493262D01*
X1140768Y493242D01*
X1140821Y493153D01*
X1140870Y493062D01*
X1140884Y493048D01*
X1140894Y493031D01*
X1140973Y492964D01*
X1141048Y492892D01*
X1141066Y492884D01*
X1141081Y492871D01*
X1141177Y492832D01*
X1141271Y492789D01*
X1141291Y492787D01*
X1141309Y492779D01*
X1141476Y492761D01*
X1144524Y492761D01*
X1144544Y492764D01*
X1144563Y492762D01*
X1144665Y492784D01*
X1144767Y492800D01*
X1144784Y492810D01*
X1144804Y492814D01*
X1144893Y492867D01*
X1144984Y492916D01*
X1144998Y492930D01*
X1145015Y492940D01*
X1145082Y493019D01*
X1145154Y493094D01*
X1145162Y493112D01*
X1145175Y493127D01*
X1145214Y493223D01*
X1145257Y493317D01*
X1145259Y493337D01*
X1145267Y493355D01*
X1145285Y493522D01*
X1145285Y497372D01*
X1146871Y501200D01*
X1149800Y504129D01*
X1153628Y505715D01*
X1157772Y505715D01*
X1161600Y504129D01*
X1164529Y501200D01*
X1166115Y497372D01*
X1166115Y493522D01*
X1166118Y493502D01*
X1166116Y493483D01*
X1166138Y493381D01*
X1166154Y493279D01*
X1166164Y493262D01*
X1166168Y493242D01*
X1166221Y493153D01*
X1166270Y493062D01*
X1166284Y493048D01*
X1166294Y493031D01*
X1166373Y492964D01*
X1166448Y492892D01*
X1166466Y492884D01*
X1166481Y492871D01*
X1166577Y492832D01*
X1166671Y492789D01*
X1166691Y492787D01*
X1166709Y492779D01*
X1166876Y492761D01*
X1169924Y492761D01*
X1169944Y492764D01*
X1169963Y492762D01*
X1170065Y492784D01*
X1170167Y492800D01*
X1170184Y492810D01*
X1170204Y492814D01*
X1170293Y492867D01*
X1170384Y492916D01*
X1170398Y492930D01*
X1170415Y492940D01*
X1170482Y493019D01*
X1170554Y493094D01*
X1170562Y493112D01*
X1170575Y493127D01*
X1170614Y493223D01*
X1170657Y493317D01*
X1170659Y493337D01*
X1170667Y493355D01*
X1170685Y493522D01*
X1170685Y497372D01*
X1172271Y501200D01*
X1175200Y504129D01*
X1179028Y505715D01*
X1183172Y505715D01*
X1187000Y504129D01*
X1189929Y501200D01*
X1191515Y497372D01*
X1191515Y493522D01*
X1191518Y493502D01*
X1191516Y493483D01*
X1191538Y493381D01*
X1191554Y493279D01*
X1191564Y493262D01*
X1191568Y493242D01*
X1191621Y493153D01*
X1191670Y493062D01*
X1191684Y493048D01*
X1191694Y493031D01*
X1191773Y492964D01*
X1191848Y492892D01*
X1191866Y492884D01*
X1191881Y492871D01*
X1191977Y492832D01*
X1192071Y492789D01*
X1192091Y492787D01*
X1192109Y492779D01*
X1192276Y492761D01*
X1195324Y492761D01*
X1195344Y492764D01*
X1195363Y492762D01*
X1195465Y492784D01*
X1195567Y492800D01*
X1195584Y492810D01*
X1195604Y492814D01*
X1195693Y492867D01*
X1195784Y492916D01*
X1195798Y492930D01*
X1195815Y492940D01*
X1195882Y493019D01*
X1195954Y493094D01*
X1195962Y493112D01*
X1195975Y493127D01*
X1196014Y493223D01*
X1196057Y493317D01*
X1196059Y493337D01*
X1196067Y493355D01*
X1196085Y493522D01*
X1196085Y497372D01*
X1197671Y501200D01*
X1200600Y504129D01*
X1204428Y505715D01*
X1208572Y505715D01*
X1212400Y504129D01*
X1215329Y501200D01*
X1216915Y497372D01*
X1216915Y493522D01*
X1216918Y493502D01*
X1216916Y493483D01*
X1216938Y493381D01*
X1216954Y493279D01*
X1216964Y493262D01*
X1216968Y493242D01*
X1217021Y493153D01*
X1217070Y493062D01*
X1217084Y493048D01*
X1217094Y493031D01*
X1217173Y492964D01*
X1217248Y492892D01*
X1217266Y492884D01*
X1217281Y492871D01*
X1217377Y492832D01*
X1217471Y492789D01*
X1217491Y492787D01*
X1217509Y492779D01*
X1217676Y492761D01*
X1220724Y492761D01*
X1220744Y492764D01*
X1220763Y492762D01*
X1220865Y492784D01*
X1220967Y492800D01*
X1220984Y492810D01*
X1221004Y492814D01*
X1221093Y492867D01*
X1221184Y492916D01*
X1221198Y492930D01*
X1221215Y492940D01*
X1221282Y493019D01*
X1221354Y493094D01*
X1221362Y493112D01*
X1221375Y493127D01*
X1221414Y493223D01*
X1221457Y493317D01*
X1221459Y493337D01*
X1221467Y493355D01*
X1221485Y493522D01*
X1221485Y497372D01*
X1223071Y501200D01*
X1226000Y504129D01*
X1229828Y505715D01*
X1233972Y505715D01*
X1237800Y504129D01*
X1240729Y501200D01*
X1242315Y497372D01*
X1242315Y493522D01*
X1242318Y493502D01*
X1242316Y493483D01*
X1242338Y493381D01*
X1242354Y493279D01*
X1242364Y493262D01*
X1242368Y493242D01*
X1242421Y493153D01*
X1242470Y493062D01*
X1242484Y493048D01*
X1242494Y493031D01*
X1242573Y492964D01*
X1242648Y492892D01*
X1242666Y492884D01*
X1242681Y492871D01*
X1242777Y492832D01*
X1242871Y492789D01*
X1242891Y492787D01*
X1242909Y492779D01*
X1243076Y492761D01*
X1246124Y492761D01*
X1246144Y492764D01*
X1246163Y492762D01*
X1246265Y492784D01*
X1246367Y492800D01*
X1246384Y492810D01*
X1246404Y492814D01*
X1246493Y492867D01*
X1246584Y492916D01*
X1246598Y492930D01*
X1246615Y492940D01*
X1246682Y493019D01*
X1246754Y493094D01*
X1246762Y493112D01*
X1246775Y493127D01*
X1246814Y493223D01*
X1246857Y493317D01*
X1246859Y493337D01*
X1246867Y493355D01*
X1246885Y493522D01*
X1246885Y497372D01*
X1248471Y501200D01*
X1251400Y504129D01*
X1255228Y505715D01*
X1259372Y505715D01*
X1263200Y504129D01*
X1266129Y501200D01*
X1267715Y497372D01*
X1267715Y493522D01*
X1267718Y493502D01*
X1267716Y493483D01*
X1267738Y493381D01*
X1267754Y493279D01*
X1267764Y493262D01*
X1267768Y493242D01*
X1267821Y493153D01*
X1267870Y493062D01*
X1267884Y493048D01*
X1267894Y493031D01*
X1267973Y492964D01*
X1268048Y492892D01*
X1268066Y492884D01*
X1268081Y492871D01*
X1268177Y492832D01*
X1268271Y492789D01*
X1268291Y492787D01*
X1268309Y492779D01*
X1268476Y492761D01*
X1271524Y492761D01*
X1271544Y492764D01*
X1271563Y492762D01*
X1271665Y492784D01*
X1271767Y492800D01*
X1271784Y492810D01*
X1271804Y492814D01*
X1271893Y492867D01*
X1271984Y492916D01*
X1271998Y492930D01*
X1272015Y492940D01*
X1272082Y493019D01*
X1272154Y493094D01*
X1272162Y493112D01*
X1272175Y493127D01*
X1272214Y493223D01*
X1272257Y493317D01*
X1272259Y493337D01*
X1272267Y493355D01*
X1272285Y493522D01*
X1272285Y497372D01*
X1273871Y501200D01*
X1276800Y504129D01*
X1280628Y505715D01*
X1284772Y505715D01*
X1288600Y504129D01*
X1291529Y501200D01*
X1293115Y497372D01*
X1293115Y493522D01*
X1293118Y493502D01*
X1293116Y493483D01*
X1293138Y493381D01*
X1293154Y493279D01*
X1293164Y493262D01*
X1293168Y493242D01*
X1293221Y493153D01*
X1293270Y493062D01*
X1293284Y493048D01*
X1293294Y493031D01*
X1293373Y492964D01*
X1293448Y492892D01*
X1293466Y492884D01*
X1293481Y492871D01*
X1293577Y492832D01*
X1293671Y492789D01*
X1293691Y492787D01*
X1293709Y492779D01*
X1293876Y492761D01*
X1296924Y492761D01*
X1296944Y492764D01*
X1296963Y492762D01*
X1297065Y492784D01*
X1297167Y492800D01*
X1297184Y492810D01*
X1297204Y492814D01*
X1297293Y492867D01*
X1297384Y492916D01*
X1297398Y492930D01*
X1297415Y492940D01*
X1297482Y493019D01*
X1297554Y493094D01*
X1297562Y493112D01*
X1297575Y493127D01*
X1297614Y493223D01*
X1297657Y493317D01*
X1297659Y493337D01*
X1297667Y493355D01*
X1297685Y493522D01*
X1297685Y497372D01*
X1299271Y501200D01*
X1302200Y504129D01*
X1306028Y505715D01*
X1310172Y505715D01*
X1314000Y504129D01*
X1316929Y501200D01*
X1318515Y497372D01*
X1318515Y493522D01*
X1318518Y493502D01*
X1318516Y493483D01*
X1318538Y493381D01*
X1318554Y493279D01*
X1318564Y493262D01*
X1318568Y493242D01*
X1318621Y493153D01*
X1318670Y493062D01*
X1318684Y493048D01*
X1318694Y493031D01*
X1318773Y492964D01*
X1318848Y492892D01*
X1318866Y492884D01*
X1318881Y492871D01*
X1318977Y492832D01*
X1319071Y492789D01*
X1319091Y492787D01*
X1319109Y492779D01*
X1319276Y492761D01*
X1432104Y492761D01*
X1432175Y492772D01*
X1432247Y492774D01*
X1432296Y492792D01*
X1432347Y492800D01*
X1432411Y492834D01*
X1432478Y492859D01*
X1432519Y492891D01*
X1432565Y492916D01*
X1432614Y492968D01*
X1432670Y493012D01*
X1432698Y493056D01*
X1432734Y493094D01*
X1432764Y493159D01*
X1432803Y493219D01*
X1432816Y493270D01*
X1432838Y493317D01*
X1432845Y493388D01*
X1432863Y493458D01*
X1432859Y493510D01*
X1432865Y493561D01*
X1432849Y493632D01*
X1432844Y493703D01*
X1432823Y493751D01*
X1432812Y493802D01*
X1432776Y493863D01*
X1432748Y493929D01*
X1432703Y493985D01*
X1432686Y494013D01*
X1432668Y494028D01*
X1432643Y494060D01*
X1430358Y496345D01*
X1427225Y503907D01*
X1427225Y512093D01*
X1430358Y519655D01*
X1436145Y525442D01*
X1443707Y528575D01*
X1451893Y528575D01*
X1459455Y525442D01*
X1461740Y523157D01*
X1461798Y523115D01*
X1461850Y523066D01*
X1461897Y523044D01*
X1461939Y523014D01*
X1462008Y522993D01*
X1462073Y522962D01*
X1462125Y522957D01*
X1462175Y522941D01*
X1462246Y522943D01*
X1462317Y522935D01*
X1462368Y522946D01*
X1462420Y522948D01*
X1462488Y522972D01*
X1462558Y522988D01*
X1462603Y523014D01*
X1462651Y523032D01*
X1462707Y523077D01*
X1462769Y523114D01*
X1462803Y523153D01*
X1462843Y523186D01*
X1462882Y523246D01*
X1462929Y523301D01*
X1462948Y523349D01*
X1462976Y523393D01*
X1462994Y523462D01*
X1463021Y523529D01*
X1463029Y523600D01*
X1463037Y523631D01*
X1463035Y523655D01*
X1463039Y523696D01*
X1463039Y670104D01*
X1463028Y670175D01*
X1463026Y670247D01*
X1463008Y670296D01*
X1463000Y670347D01*
X1462966Y670411D01*
X1462941Y670478D01*
X1462909Y670519D01*
X1462884Y670565D01*
X1462832Y670614D01*
X1462788Y670670D01*
X1462744Y670698D01*
X1462706Y670734D01*
X1462641Y670764D01*
X1462581Y670803D01*
X1462530Y670816D01*
X1462483Y670838D01*
X1462412Y670845D01*
X1462342Y670863D01*
X1462290Y670859D01*
X1462239Y670865D01*
X1462168Y670849D01*
X1462097Y670844D01*
X1462049Y670823D01*
X1461998Y670812D01*
X1461937Y670776D01*
X1461871Y670748D01*
X1461815Y670703D01*
X1461787Y670686D01*
X1461772Y670668D01*
X1461740Y670643D01*
X1459455Y668358D01*
X1451893Y665225D01*
X1443707Y665225D01*
X1436145Y668358D01*
X1430358Y674145D01*
X1427225Y681707D01*
X1427225Y689893D01*
X1430358Y697455D01*
X1432643Y699740D01*
X1432685Y699798D01*
X1432734Y699850D01*
X1432756Y699897D01*
X1432786Y699939D01*
X1432807Y700008D01*
X1432838Y700073D01*
X1432843Y700125D01*
X1432859Y700175D01*
X1432857Y700246D01*
X1432865Y700317D01*
X1432854Y700368D01*
X1432852Y700420D01*
X1432828Y700488D01*
X1432812Y700558D01*
X1432786Y700603D01*
X1432768Y700651D01*
X1432723Y700707D01*
X1432686Y700769D01*
X1432647Y700803D01*
X1432614Y700843D01*
X1432554Y700882D01*
X1432499Y700929D01*
X1432451Y700948D01*
X1432407Y700976D01*
X1432338Y700994D01*
X1432271Y701021D01*
X1432200Y701029D01*
X1432169Y701037D01*
X1432145Y701035D01*
X1432104Y701039D01*
X1420876Y701039D01*
X1420856Y701036D01*
X1420837Y701038D01*
X1420735Y701016D01*
X1420633Y701000D01*
X1420616Y700990D01*
X1420596Y700986D01*
X1420507Y700933D01*
X1420416Y700884D01*
X1420402Y700870D01*
X1420385Y700860D01*
X1420318Y700781D01*
X1420246Y700706D01*
X1420238Y700688D01*
X1420225Y700673D01*
X1420186Y700577D01*
X1420143Y700483D01*
X1420141Y700463D01*
X1420133Y700445D01*
X1420115Y700278D01*
X1420115Y696428D01*
X1418529Y692600D01*
X1415600Y689671D01*
X1411772Y688085D01*
X1407628Y688085D01*
X1403800Y689671D01*
X1400871Y692600D01*
X1399285Y696428D01*
X1399285Y700278D01*
X1399282Y700298D01*
X1399284Y700317D01*
X1399262Y700419D01*
X1399246Y700521D01*
X1399236Y700538D01*
X1399232Y700558D01*
X1399179Y700647D01*
X1399130Y700738D01*
X1399116Y700752D01*
X1399106Y700769D01*
X1399027Y700836D01*
X1398952Y700908D01*
X1398934Y700916D01*
X1398919Y700929D01*
X1398823Y700968D01*
X1398729Y701011D01*
X1398709Y701013D01*
X1398691Y701021D01*
X1398524Y701039D01*
X1395476Y701039D01*
X1395456Y701036D01*
X1395437Y701038D01*
X1395335Y701016D01*
X1395233Y701000D01*
X1395216Y700990D01*
X1395196Y700986D01*
X1395107Y700933D01*
X1395016Y700884D01*
X1395002Y700870D01*
X1394985Y700860D01*
X1394918Y700781D01*
X1394846Y700706D01*
X1394838Y700688D01*
X1394825Y700673D01*
X1394786Y700577D01*
X1394743Y700483D01*
X1394741Y700463D01*
X1394733Y700445D01*
X1394715Y700278D01*
X1394715Y696428D01*
X1393129Y692600D01*
X1390200Y689671D01*
X1386372Y688085D01*
X1382228Y688085D01*
X1378400Y689671D01*
X1375471Y692600D01*
X1373885Y696428D01*
X1373885Y700278D01*
X1373882Y700298D01*
X1373884Y700317D01*
X1373862Y700419D01*
X1373846Y700521D01*
X1373836Y700538D01*
X1373832Y700558D01*
X1373779Y700647D01*
X1373730Y700738D01*
X1373716Y700752D01*
X1373706Y700769D01*
X1373627Y700836D01*
X1373552Y700908D01*
X1373534Y700916D01*
X1373519Y700929D01*
X1373423Y700968D01*
X1373329Y701011D01*
X1373309Y701013D01*
X1373291Y701021D01*
X1373124Y701039D01*
X1370076Y701039D01*
X1370056Y701036D01*
X1370037Y701038D01*
X1369935Y701016D01*
X1369833Y701000D01*
X1369816Y700990D01*
X1369796Y700986D01*
X1369707Y700933D01*
X1369616Y700884D01*
X1369602Y700870D01*
X1369585Y700860D01*
X1369518Y700781D01*
X1369446Y700706D01*
X1369438Y700688D01*
X1369425Y700673D01*
X1369386Y700577D01*
X1369343Y700483D01*
X1369341Y700463D01*
X1369333Y700445D01*
X1369315Y700278D01*
X1369315Y696428D01*
X1367729Y692600D01*
X1364800Y689671D01*
X1360972Y688085D01*
X1356828Y688085D01*
X1353000Y689671D01*
X1350071Y692600D01*
X1348485Y696428D01*
X1348485Y700278D01*
X1348482Y700298D01*
X1348484Y700317D01*
X1348462Y700419D01*
X1348446Y700521D01*
X1348436Y700538D01*
X1348432Y700558D01*
X1348379Y700647D01*
X1348330Y700738D01*
X1348316Y700752D01*
X1348306Y700769D01*
X1348227Y700836D01*
X1348152Y700908D01*
X1348134Y700916D01*
X1348119Y700929D01*
X1348023Y700968D01*
X1347929Y701011D01*
X1347909Y701013D01*
X1347891Y701021D01*
X1347724Y701039D01*
X1344676Y701039D01*
X1344656Y701036D01*
X1344637Y701038D01*
X1344535Y701016D01*
X1344433Y701000D01*
X1344416Y700990D01*
X1344396Y700986D01*
X1344307Y700933D01*
X1344216Y700884D01*
X1344202Y700870D01*
X1344185Y700860D01*
X1344118Y700781D01*
X1344046Y700706D01*
X1344038Y700688D01*
X1344025Y700673D01*
X1343986Y700577D01*
X1343943Y700483D01*
X1343941Y700463D01*
X1343933Y700445D01*
X1343915Y700278D01*
X1343915Y696428D01*
X1342329Y692600D01*
X1339400Y689671D01*
X1335572Y688085D01*
X1331428Y688085D01*
X1327600Y689671D01*
X1324671Y692600D01*
X1323085Y696428D01*
X1323085Y700278D01*
X1323082Y700298D01*
X1323084Y700317D01*
X1323062Y700419D01*
X1323046Y700521D01*
X1323036Y700538D01*
X1323032Y700558D01*
X1322979Y700647D01*
X1322930Y700738D01*
X1322916Y700752D01*
X1322906Y700769D01*
X1322827Y700836D01*
X1322752Y700908D01*
X1322734Y700916D01*
X1322719Y700929D01*
X1322623Y700968D01*
X1322529Y701011D01*
X1322509Y701013D01*
X1322491Y701021D01*
X1322324Y701039D01*
X1319276Y701039D01*
X1319256Y701036D01*
X1319237Y701038D01*
X1319135Y701016D01*
X1319033Y701000D01*
X1319016Y700990D01*
X1318996Y700986D01*
X1318907Y700933D01*
X1318816Y700884D01*
X1318802Y700870D01*
X1318785Y700860D01*
X1318718Y700781D01*
X1318646Y700706D01*
X1318638Y700688D01*
X1318625Y700673D01*
X1318586Y700577D01*
X1318543Y700483D01*
X1318541Y700463D01*
X1318533Y700445D01*
X1318515Y700278D01*
X1318515Y696428D01*
X1316929Y692600D01*
X1314000Y689671D01*
X1310172Y688085D01*
X1306028Y688085D01*
X1302200Y689671D01*
X1299271Y692600D01*
X1297685Y696428D01*
X1297685Y700278D01*
X1297682Y700298D01*
X1297684Y700317D01*
X1297662Y700419D01*
X1297646Y700521D01*
X1297636Y700538D01*
X1297632Y700558D01*
X1297579Y700647D01*
X1297530Y700738D01*
X1297516Y700752D01*
X1297506Y700769D01*
X1297427Y700836D01*
X1297352Y700908D01*
X1297334Y700916D01*
X1297319Y700929D01*
X1297223Y700968D01*
X1297129Y701011D01*
X1297109Y701013D01*
X1297091Y701021D01*
X1296924Y701039D01*
X1293876Y701039D01*
X1293856Y701036D01*
X1293837Y701038D01*
X1293735Y701016D01*
X1293633Y701000D01*
X1293616Y700990D01*
X1293596Y700986D01*
X1293507Y700933D01*
X1293416Y700884D01*
X1293402Y700870D01*
X1293385Y700860D01*
X1293318Y700781D01*
X1293246Y700706D01*
X1293238Y700688D01*
X1293225Y700673D01*
X1293186Y700577D01*
X1293143Y700483D01*
X1293141Y700463D01*
X1293133Y700445D01*
X1293115Y700278D01*
X1293115Y696428D01*
X1291529Y692600D01*
X1288600Y689671D01*
X1284772Y688085D01*
X1280628Y688085D01*
X1276800Y689671D01*
X1273871Y692600D01*
X1272285Y696428D01*
X1272285Y700278D01*
X1272282Y700298D01*
X1272284Y700317D01*
X1272262Y700419D01*
X1272246Y700521D01*
X1272236Y700538D01*
X1272232Y700558D01*
X1272179Y700647D01*
X1272130Y700738D01*
X1272116Y700752D01*
X1272106Y700769D01*
X1272027Y700836D01*
X1271952Y700908D01*
X1271934Y700916D01*
X1271919Y700929D01*
X1271823Y700968D01*
X1271729Y701011D01*
X1271709Y701013D01*
X1271691Y701021D01*
X1271524Y701039D01*
X1268476Y701039D01*
X1268456Y701036D01*
X1268437Y701038D01*
X1268335Y701016D01*
X1268233Y701000D01*
X1268216Y700990D01*
X1268196Y700986D01*
X1268107Y700933D01*
X1268016Y700884D01*
X1268002Y700870D01*
X1267985Y700860D01*
X1267918Y700781D01*
X1267846Y700706D01*
X1267838Y700688D01*
X1267825Y700673D01*
X1267786Y700577D01*
X1267743Y700483D01*
X1267741Y700463D01*
X1267733Y700445D01*
X1267715Y700278D01*
X1267715Y696428D01*
X1266129Y692600D01*
X1263200Y689671D01*
X1259372Y688085D01*
X1255228Y688085D01*
X1251400Y689671D01*
X1248471Y692600D01*
X1246885Y696428D01*
X1246885Y700278D01*
X1246882Y700298D01*
X1246884Y700317D01*
X1246862Y700419D01*
X1246846Y700521D01*
X1246836Y700538D01*
X1246832Y700558D01*
X1246779Y700647D01*
X1246730Y700738D01*
X1246716Y700752D01*
X1246706Y700769D01*
X1246627Y700836D01*
X1246552Y700908D01*
X1246534Y700916D01*
X1246519Y700929D01*
X1246423Y700968D01*
X1246329Y701011D01*
X1246309Y701013D01*
X1246291Y701021D01*
X1246124Y701039D01*
X1243076Y701039D01*
X1243056Y701036D01*
X1243037Y701038D01*
X1242935Y701016D01*
X1242833Y701000D01*
X1242816Y700990D01*
X1242796Y700986D01*
X1242707Y700933D01*
X1242616Y700884D01*
X1242602Y700870D01*
X1242585Y700860D01*
X1242518Y700781D01*
X1242446Y700706D01*
X1242438Y700688D01*
X1242425Y700673D01*
X1242386Y700577D01*
X1242343Y700483D01*
X1242341Y700463D01*
X1242333Y700445D01*
X1242315Y700278D01*
X1242315Y696428D01*
X1240729Y692600D01*
X1237800Y689671D01*
X1233972Y688085D01*
X1229828Y688085D01*
X1226000Y689671D01*
X1223071Y692600D01*
X1221485Y696428D01*
X1221485Y700278D01*
X1221482Y700298D01*
X1221484Y700317D01*
X1221462Y700419D01*
X1221446Y700521D01*
X1221436Y700538D01*
X1221432Y700558D01*
X1221379Y700647D01*
X1221330Y700738D01*
X1221316Y700752D01*
X1221306Y700769D01*
X1221227Y700836D01*
X1221152Y700908D01*
X1221134Y700916D01*
X1221119Y700929D01*
X1221023Y700968D01*
X1220929Y701011D01*
X1220909Y701013D01*
X1220891Y701021D01*
X1220724Y701039D01*
X1217676Y701039D01*
X1217656Y701036D01*
X1217637Y701038D01*
X1217535Y701016D01*
X1217433Y701000D01*
X1217416Y700990D01*
X1217396Y700986D01*
X1217307Y700933D01*
X1217216Y700884D01*
X1217202Y700870D01*
X1217185Y700860D01*
X1217118Y700781D01*
X1217046Y700706D01*
X1217038Y700688D01*
X1217025Y700673D01*
X1216986Y700577D01*
X1216943Y700483D01*
X1216941Y700463D01*
X1216933Y700445D01*
X1216915Y700278D01*
X1216915Y696428D01*
X1215329Y692600D01*
X1212400Y689671D01*
X1208572Y688085D01*
X1204428Y688085D01*
X1200600Y689671D01*
X1197671Y692600D01*
X1196085Y696428D01*
X1196085Y700278D01*
X1196082Y700298D01*
X1196084Y700317D01*
X1196062Y700419D01*
X1196046Y700521D01*
X1196036Y700538D01*
X1196032Y700558D01*
X1195979Y700647D01*
X1195930Y700738D01*
X1195916Y700752D01*
X1195906Y700769D01*
X1195827Y700836D01*
X1195752Y700908D01*
X1195734Y700916D01*
X1195719Y700929D01*
X1195623Y700968D01*
X1195529Y701011D01*
X1195509Y701013D01*
X1195491Y701021D01*
X1195324Y701039D01*
X1192276Y701039D01*
X1192256Y701036D01*
X1192237Y701038D01*
X1192135Y701016D01*
X1192033Y701000D01*
X1192016Y700990D01*
X1191996Y700986D01*
X1191907Y700933D01*
X1191816Y700884D01*
X1191802Y700870D01*
X1191785Y700860D01*
X1191718Y700781D01*
X1191646Y700706D01*
X1191638Y700688D01*
X1191625Y700673D01*
X1191586Y700577D01*
X1191543Y700483D01*
X1191541Y700463D01*
X1191533Y700445D01*
X1191515Y700278D01*
X1191515Y696428D01*
X1189929Y692600D01*
X1187000Y689671D01*
X1183172Y688085D01*
X1179028Y688085D01*
X1175200Y689671D01*
X1172271Y692600D01*
X1170685Y696428D01*
X1170685Y700278D01*
X1170682Y700298D01*
X1170684Y700317D01*
X1170662Y700419D01*
X1170646Y700521D01*
X1170636Y700538D01*
X1170632Y700558D01*
X1170579Y700647D01*
X1170530Y700738D01*
X1170516Y700752D01*
X1170506Y700769D01*
X1170427Y700836D01*
X1170352Y700908D01*
X1170334Y700916D01*
X1170319Y700929D01*
X1170223Y700968D01*
X1170129Y701011D01*
X1170109Y701013D01*
X1170091Y701021D01*
X1169924Y701039D01*
X1166876Y701039D01*
X1166856Y701036D01*
X1166837Y701038D01*
X1166735Y701016D01*
X1166633Y701000D01*
X1166616Y700990D01*
X1166596Y700986D01*
X1166507Y700933D01*
X1166416Y700884D01*
X1166402Y700870D01*
X1166385Y700860D01*
X1166318Y700781D01*
X1166246Y700706D01*
X1166238Y700688D01*
X1166225Y700673D01*
X1166186Y700577D01*
X1166143Y700483D01*
X1166141Y700463D01*
X1166133Y700445D01*
X1166115Y700278D01*
X1166115Y696428D01*
X1164529Y692600D01*
X1161600Y689671D01*
X1157772Y688085D01*
X1153628Y688085D01*
X1149800Y689671D01*
X1146871Y692600D01*
X1145285Y696428D01*
X1145285Y700278D01*
X1145282Y700298D01*
X1145284Y700317D01*
X1145262Y700419D01*
X1145246Y700521D01*
X1145236Y700538D01*
X1145232Y700558D01*
X1145179Y700647D01*
X1145130Y700738D01*
X1145116Y700752D01*
X1145106Y700769D01*
X1145027Y700836D01*
X1144952Y700908D01*
X1144934Y700916D01*
X1144919Y700929D01*
X1144823Y700968D01*
X1144729Y701011D01*
X1144709Y701013D01*
X1144691Y701021D01*
X1144524Y701039D01*
X1141476Y701039D01*
X1141456Y701036D01*
X1141437Y701038D01*
X1141335Y701016D01*
X1141233Y701000D01*
X1141216Y700990D01*
X1141196Y700986D01*
X1141107Y700933D01*
X1141016Y700884D01*
X1141002Y700870D01*
X1140985Y700860D01*
X1140918Y700781D01*
X1140846Y700706D01*
X1140838Y700688D01*
X1140825Y700673D01*
X1140786Y700577D01*
X1140743Y700483D01*
X1140741Y700463D01*
X1140733Y700445D01*
X1140715Y700278D01*
X1140715Y696428D01*
X1139129Y692600D01*
X1136200Y689671D01*
X1132372Y688085D01*
X1128228Y688085D01*
X1124400Y689671D01*
X1121471Y692600D01*
X1119885Y696428D01*
X1119885Y700278D01*
X1119882Y700298D01*
X1119884Y700317D01*
X1119862Y700419D01*
X1119846Y700521D01*
X1119836Y700538D01*
X1119832Y700558D01*
X1119779Y700647D01*
X1119730Y700738D01*
X1119716Y700752D01*
X1119706Y700769D01*
X1119627Y700836D01*
X1119552Y700908D01*
X1119534Y700916D01*
X1119519Y700929D01*
X1119423Y700968D01*
X1119329Y701011D01*
X1119309Y701013D01*
X1119291Y701021D01*
X1119124Y701039D01*
X1116076Y701039D01*
X1116056Y701036D01*
X1116037Y701038D01*
X1115935Y701016D01*
X1115833Y701000D01*
X1115816Y700990D01*
X1115796Y700986D01*
X1115707Y700933D01*
X1115616Y700884D01*
X1115602Y700870D01*
X1115585Y700860D01*
X1115518Y700781D01*
X1115446Y700706D01*
X1115438Y700688D01*
X1115425Y700673D01*
X1115386Y700577D01*
X1115343Y700483D01*
X1115341Y700463D01*
X1115333Y700445D01*
X1115315Y700278D01*
X1115315Y696428D01*
X1113729Y692600D01*
X1110800Y689671D01*
X1106972Y688085D01*
X1102828Y688085D01*
X1099000Y689671D01*
X1096071Y692600D01*
X1094485Y696428D01*
X1094485Y700278D01*
X1094482Y700298D01*
X1094484Y700317D01*
X1094462Y700419D01*
X1094446Y700521D01*
X1094436Y700538D01*
X1094432Y700558D01*
X1094379Y700647D01*
X1094330Y700738D01*
X1094316Y700752D01*
X1094306Y700769D01*
X1094227Y700836D01*
X1094152Y700908D01*
X1094134Y700916D01*
X1094119Y700929D01*
X1094023Y700968D01*
X1093929Y701011D01*
X1093909Y701013D01*
X1093891Y701021D01*
X1093724Y701039D01*
X1090676Y701039D01*
X1090656Y701036D01*
X1090637Y701038D01*
X1090535Y701016D01*
X1090433Y701000D01*
X1090416Y700990D01*
X1090396Y700986D01*
X1090307Y700933D01*
X1090216Y700884D01*
X1090202Y700870D01*
X1090185Y700860D01*
X1090118Y700781D01*
X1090046Y700706D01*
X1090038Y700688D01*
X1090025Y700673D01*
X1089986Y700577D01*
X1089943Y700483D01*
X1089941Y700463D01*
X1089933Y700445D01*
X1089915Y700278D01*
X1089915Y696428D01*
X1088329Y692600D01*
X1085400Y689671D01*
X1081572Y688085D01*
X1077428Y688085D01*
X1073600Y689671D01*
X1070671Y692600D01*
X1069085Y696428D01*
X1069085Y700278D01*
X1069082Y700298D01*
X1069084Y700317D01*
X1069062Y700419D01*
X1069046Y700521D01*
X1069036Y700538D01*
X1069032Y700558D01*
X1068979Y700647D01*
X1068930Y700738D01*
X1068916Y700752D01*
X1068906Y700769D01*
X1068827Y700836D01*
X1068752Y700908D01*
X1068734Y700916D01*
X1068719Y700929D01*
X1068623Y700968D01*
X1068529Y701011D01*
X1068509Y701013D01*
X1068491Y701021D01*
X1068324Y701039D01*
X1065276Y701039D01*
X1065256Y701036D01*
X1065237Y701038D01*
X1065135Y701016D01*
X1065033Y701000D01*
X1065016Y700990D01*
X1064996Y700986D01*
X1064907Y700933D01*
X1064816Y700884D01*
X1064802Y700870D01*
X1064785Y700860D01*
X1064718Y700781D01*
X1064646Y700706D01*
X1064638Y700688D01*
X1064625Y700673D01*
X1064586Y700577D01*
X1064543Y700483D01*
X1064541Y700463D01*
X1064533Y700445D01*
X1064515Y700278D01*
X1064515Y696428D01*
X1062929Y692600D01*
X1060000Y689671D01*
X1056172Y688085D01*
X1052028Y688085D01*
X1048200Y689671D01*
X1045271Y692600D01*
X1043685Y696428D01*
X1043685Y700278D01*
X1043682Y700298D01*
X1043684Y700317D01*
X1043662Y700419D01*
X1043646Y700521D01*
X1043636Y700538D01*
X1043632Y700558D01*
X1043579Y700647D01*
X1043530Y700738D01*
X1043516Y700752D01*
X1043506Y700769D01*
X1043427Y700836D01*
X1043352Y700908D01*
X1043334Y700916D01*
X1043319Y700929D01*
X1043223Y700968D01*
X1043129Y701011D01*
X1043109Y701013D01*
X1043091Y701021D01*
X1042924Y701039D01*
X1039876Y701039D01*
X1039856Y701036D01*
X1039837Y701038D01*
X1039735Y701016D01*
X1039633Y701000D01*
X1039616Y700990D01*
X1039596Y700986D01*
X1039507Y700933D01*
X1039416Y700884D01*
X1039402Y700870D01*
X1039385Y700860D01*
X1039318Y700781D01*
X1039246Y700706D01*
X1039238Y700688D01*
X1039225Y700673D01*
X1039186Y700577D01*
X1039143Y700483D01*
X1039141Y700463D01*
X1039133Y700445D01*
X1039115Y700278D01*
X1039115Y696428D01*
X1037529Y692600D01*
X1034600Y689671D01*
X1030772Y688085D01*
X1026628Y688085D01*
X1022800Y689671D01*
X1019871Y692600D01*
X1018285Y696428D01*
X1018285Y700278D01*
X1018282Y700298D01*
X1018284Y700317D01*
X1018262Y700419D01*
X1018246Y700521D01*
X1018236Y700538D01*
X1018232Y700558D01*
X1018179Y700647D01*
X1018130Y700738D01*
X1018116Y700752D01*
X1018106Y700769D01*
X1018027Y700836D01*
X1017952Y700908D01*
X1017934Y700916D01*
X1017919Y700929D01*
X1017823Y700968D01*
X1017729Y701011D01*
X1017709Y701013D01*
X1017691Y701021D01*
X1017524Y701039D01*
X1009529Y701039D01*
X1009458Y701028D01*
X1009386Y701026D01*
X1009337Y701008D01*
X1009286Y701000D01*
X1009222Y700966D01*
X1009155Y700941D01*
X1009114Y700909D01*
X1009068Y700884D01*
X1009019Y700832D01*
X1008963Y700788D01*
X1008935Y700744D01*
X1008899Y700706D01*
X1008869Y700641D01*
X1008830Y700581D01*
X1008817Y700530D01*
X1008795Y700483D01*
X1008787Y700412D01*
X1008770Y700342D01*
X1008774Y700290D01*
X1008768Y700239D01*
X1008784Y700168D01*
X1008789Y700097D01*
X1008809Y700049D01*
X1008821Y699998D01*
X1008857Y699937D01*
X1008885Y699871D01*
X1008930Y699815D01*
X1008947Y699787D01*
X1008965Y699772D01*
X1008990Y699740D01*
X1009980Y698750D01*
X1013461Y690347D01*
X1013461Y681253D01*
X1009980Y672850D01*
X1003550Y666420D01*
X995147Y662939D01*
X986053Y662939D01*
X977650Y666420D01*
X976660Y667410D01*
X976602Y667452D01*
X976550Y667501D01*
X976503Y667523D01*
X976461Y667553D01*
X976392Y667574D01*
X976327Y667605D01*
X976275Y667610D01*
X976225Y667626D01*
X976154Y667624D01*
X976083Y667632D01*
X976032Y667621D01*
X975980Y667619D01*
X975912Y667595D01*
X975842Y667579D01*
X975797Y667553D01*
X975749Y667535D01*
X975693Y667490D01*
X975631Y667453D01*
X975597Y667414D01*
X975557Y667381D01*
X975518Y667321D01*
X975471Y667266D01*
X975452Y667218D01*
X975424Y667174D01*
X975406Y667105D01*
X975379Y667038D01*
X975371Y666967D01*
X975363Y666936D01*
X975365Y666912D01*
X975361Y666871D01*
X975361Y526929D01*
X975372Y526858D01*
X975374Y526786D01*
X975392Y526737D01*
X975400Y526686D01*
X975434Y526622D01*
X975459Y526555D01*
X975491Y526514D01*
X975516Y526468D01*
X975568Y526419D01*
X975612Y526363D01*
X975656Y526335D01*
X975694Y526299D01*
X975759Y526269D01*
X975819Y526230D01*
X975870Y526217D01*
X975917Y526195D01*
X975988Y526187D01*
X976058Y526170D01*
X976110Y526174D01*
X976161Y526168D01*
X976232Y526184D01*
X976303Y526189D01*
X976351Y526209D01*
X976402Y526221D01*
X976463Y526257D01*
X976529Y526285D01*
X976585Y526330D01*
X976613Y526347D01*
X976628Y526365D01*
X976660Y526390D01*
X977650Y527380D01*
X986053Y530861D01*
X995147Y530861D01*
X1003550Y527380D01*
X1009980Y520950D01*
X1013461Y512547D01*
X1013461Y503453D01*
X1009980Y495050D01*
X1008990Y494060D01*
X1008948Y494002D01*
X1008899Y493950D01*
X1008877Y493903D01*
X1008847Y493861D01*
X1008826Y493792D01*
X1008795Y493727D01*
X1008790Y493675D01*
X1008774Y493625D01*
X1008776Y493554D01*
X1008768Y493483D01*
X1008779Y493432D01*
X1008781Y493380D01*
X1008805Y493312D01*
X1008821Y493242D01*
X1008847Y493197D01*
X1008865Y493149D01*
X1008910Y493093D01*
X1008947Y493031D01*
X1008986Y492997D01*
X1009019Y492957D01*
X1009079Y492918D01*
X1009134Y492871D01*
X1009182Y492852D01*
X1009226Y492824D01*
X1009295Y492806D01*
X1009362Y492779D01*
X1009433Y492771D01*
X1009464Y492763D01*
X1009488Y492765D01*
X1009529Y492761D01*
X1017524Y492761D01*
X1017544Y492764D01*
G37*
%LPC*%
G36*
X986629Y249237D02*
X986629Y249237D01*
X978958Y251293D01*
X972080Y255264D01*
X966464Y260880D01*
X962493Y267758D01*
X960437Y275429D01*
X960437Y283371D01*
X962493Y291042D01*
X964565Y294632D01*
X964574Y294654D01*
X964588Y294674D01*
X964617Y294769D01*
X964652Y294862D01*
X964653Y294886D01*
X964660Y294909D01*
X964658Y295008D01*
X964661Y295108D01*
X964654Y295131D01*
X964654Y295155D01*
X964620Y295248D01*
X964591Y295344D01*
X964578Y295363D01*
X964569Y295386D01*
X964507Y295464D01*
X964450Y295545D01*
X964431Y295559D01*
X964416Y295578D01*
X964332Y295632D01*
X964252Y295691D01*
X964229Y295698D01*
X964209Y295711D01*
X964112Y295735D01*
X964018Y295766D01*
X963993Y295765D01*
X963970Y295771D01*
X963871Y295763D01*
X963772Y295762D01*
X963749Y295754D01*
X963725Y295752D01*
X963634Y295713D01*
X963540Y295680D01*
X963521Y295665D01*
X963499Y295656D01*
X963368Y295551D01*
X960558Y292741D01*
X955329Y290575D01*
X950803Y290575D01*
X950732Y290564D01*
X950660Y290562D01*
X950611Y290544D01*
X950560Y290536D01*
X950497Y290502D01*
X950429Y290477D01*
X950389Y290445D01*
X950343Y290420D01*
X950293Y290368D01*
X950237Y290324D01*
X950209Y290280D01*
X950173Y290242D01*
X950143Y290177D01*
X950104Y290117D01*
X950092Y290066D01*
X950070Y290019D01*
X950062Y289948D01*
X950044Y289878D01*
X950048Y289826D01*
X950043Y289775D01*
X950058Y289704D01*
X950063Y289633D01*
X950084Y289585D01*
X950095Y289534D01*
X950132Y289473D01*
X950160Y289407D01*
X950205Y289351D01*
X950221Y289323D01*
X950239Y289308D01*
X950265Y289276D01*
X951993Y287547D01*
X954183Y282261D01*
X954183Y276539D01*
X951993Y271253D01*
X947947Y267207D01*
X942661Y265017D01*
X936939Y265017D01*
X931653Y267207D01*
X927607Y271253D01*
X925417Y276539D01*
X925417Y282261D01*
X927607Y287547D01*
X931653Y291593D01*
X936939Y293783D01*
X941563Y293783D01*
X941633Y293794D01*
X941705Y293796D01*
X941754Y293814D01*
X941805Y293822D01*
X941869Y293856D01*
X941936Y293881D01*
X941977Y293913D01*
X942023Y293938D01*
X942072Y293990D01*
X942128Y294034D01*
X942156Y294078D01*
X942192Y294116D01*
X942222Y294181D01*
X942261Y294241D01*
X942274Y294292D01*
X942296Y294339D01*
X942304Y294410D01*
X942321Y294480D01*
X942317Y294532D01*
X942323Y294583D01*
X942308Y294654D01*
X942302Y294725D01*
X942282Y294773D01*
X942271Y294824D01*
X942234Y294885D01*
X942206Y294951D01*
X942161Y295007D01*
X942144Y295035D01*
X942127Y295050D01*
X942101Y295082D01*
X940441Y296742D01*
X938275Y301971D01*
X938275Y307629D01*
X940441Y312858D01*
X944442Y316859D01*
X949671Y319025D01*
X955329Y319025D01*
X960558Y316859D01*
X964559Y312858D01*
X966725Y307629D01*
X966725Y301971D01*
X965510Y299038D01*
X965488Y298943D01*
X965459Y298850D01*
X965460Y298824D01*
X965454Y298798D01*
X965463Y298701D01*
X965465Y298604D01*
X965474Y298579D01*
X965477Y298553D01*
X965516Y298464D01*
X965550Y298373D01*
X965566Y298352D01*
X965577Y298329D01*
X965643Y298257D01*
X965704Y298181D01*
X965726Y298167D01*
X965743Y298147D01*
X965829Y298100D01*
X965910Y298048D01*
X965936Y298041D01*
X965959Y298029D01*
X966055Y298012D01*
X966149Y297988D01*
X966175Y297990D01*
X966201Y297985D01*
X966297Y297999D01*
X966394Y298007D01*
X966418Y298017D01*
X966444Y298021D01*
X966531Y298065D01*
X966621Y298103D01*
X966646Y298124D01*
X966663Y298132D01*
X966687Y298156D01*
X966751Y298208D01*
X972080Y303536D01*
X978958Y307507D01*
X986629Y309563D01*
X994571Y309563D01*
X1002242Y307507D01*
X1009120Y303536D01*
X1014736Y297920D01*
X1018707Y291042D01*
X1020763Y283371D01*
X1020763Y275429D01*
X1018707Y267758D01*
X1014736Y260880D01*
X1009120Y255264D01*
X1002242Y251293D01*
X994571Y249237D01*
X986629Y249237D01*
G37*
%LPD*%
%LPC*%
G36*
X808829Y249237D02*
X808829Y249237D01*
X801158Y251293D01*
X794280Y255264D01*
X788664Y260880D01*
X784693Y267758D01*
X782637Y275429D01*
X782637Y283371D01*
X784693Y291042D01*
X786765Y294632D01*
X786774Y294655D01*
X786788Y294674D01*
X786817Y294769D01*
X786852Y294862D01*
X786853Y294886D01*
X786860Y294909D01*
X786858Y295008D01*
X786861Y295108D01*
X786854Y295131D01*
X786854Y295155D01*
X786820Y295248D01*
X786791Y295344D01*
X786778Y295363D01*
X786769Y295386D01*
X786707Y295464D01*
X786650Y295545D01*
X786631Y295559D01*
X786616Y295578D01*
X786532Y295632D01*
X786452Y295691D01*
X786429Y295698D01*
X786409Y295711D01*
X786312Y295735D01*
X786218Y295766D01*
X786194Y295765D01*
X786170Y295771D01*
X786071Y295763D01*
X785972Y295762D01*
X785949Y295754D01*
X785925Y295752D01*
X785834Y295713D01*
X785740Y295680D01*
X785721Y295665D01*
X785699Y295656D01*
X785568Y295551D01*
X782758Y292741D01*
X777529Y290575D01*
X773003Y290575D01*
X772932Y290564D01*
X772860Y290562D01*
X772811Y290544D01*
X772760Y290536D01*
X772697Y290502D01*
X772629Y290477D01*
X772589Y290445D01*
X772543Y290420D01*
X772493Y290368D01*
X772437Y290324D01*
X772409Y290280D01*
X772373Y290242D01*
X772343Y290177D01*
X772304Y290117D01*
X772292Y290066D01*
X772270Y290019D01*
X772262Y289948D01*
X772244Y289878D01*
X772248Y289826D01*
X772243Y289775D01*
X772258Y289704D01*
X772263Y289633D01*
X772284Y289585D01*
X772295Y289534D01*
X772332Y289473D01*
X772360Y289407D01*
X772405Y289351D01*
X772421Y289323D01*
X772439Y289308D01*
X772465Y289276D01*
X774193Y287547D01*
X776383Y282261D01*
X776383Y276539D01*
X774193Y271253D01*
X770147Y267207D01*
X764861Y265017D01*
X759139Y265017D01*
X753853Y267207D01*
X749807Y271253D01*
X747617Y276539D01*
X747617Y282261D01*
X749807Y287547D01*
X753853Y291593D01*
X759139Y293783D01*
X763763Y293783D01*
X763833Y293794D01*
X763905Y293796D01*
X763954Y293814D01*
X764005Y293822D01*
X764069Y293856D01*
X764136Y293881D01*
X764177Y293913D01*
X764223Y293938D01*
X764272Y293990D01*
X764328Y294034D01*
X764356Y294078D01*
X764392Y294116D01*
X764422Y294181D01*
X764461Y294241D01*
X764474Y294292D01*
X764496Y294339D01*
X764504Y294410D01*
X764521Y294480D01*
X764517Y294532D01*
X764523Y294583D01*
X764508Y294654D01*
X764502Y294725D01*
X764482Y294773D01*
X764471Y294824D01*
X764434Y294885D01*
X764406Y294951D01*
X764361Y295007D01*
X764344Y295035D01*
X764327Y295050D01*
X764301Y295082D01*
X762641Y296742D01*
X760475Y301971D01*
X760475Y307629D01*
X762641Y312858D01*
X766642Y316859D01*
X771871Y319025D01*
X777529Y319025D01*
X782758Y316859D01*
X786759Y312858D01*
X788925Y307629D01*
X788925Y301971D01*
X787710Y299038D01*
X787688Y298943D01*
X787659Y298850D01*
X787660Y298824D01*
X787654Y298798D01*
X787663Y298701D01*
X787665Y298604D01*
X787674Y298579D01*
X787677Y298553D01*
X787716Y298464D01*
X787750Y298373D01*
X787766Y298352D01*
X787777Y298329D01*
X787843Y298257D01*
X787904Y298181D01*
X787925Y298167D01*
X787943Y298147D01*
X788029Y298100D01*
X788110Y298048D01*
X788136Y298041D01*
X788159Y298029D01*
X788255Y298012D01*
X788349Y297988D01*
X788375Y297990D01*
X788401Y297985D01*
X788497Y297999D01*
X788594Y298007D01*
X788618Y298017D01*
X788644Y298021D01*
X788731Y298065D01*
X788820Y298103D01*
X788846Y298124D01*
X788863Y298132D01*
X788887Y298156D01*
X788951Y298208D01*
X794280Y303536D01*
X801158Y307507D01*
X808829Y309563D01*
X816771Y309563D01*
X824442Y307507D01*
X831320Y303536D01*
X836936Y297920D01*
X840907Y291042D01*
X842963Y283371D01*
X842963Y275429D01*
X840907Y267758D01*
X836936Y260880D01*
X831320Y255264D01*
X824442Y251293D01*
X816771Y249237D01*
X808829Y249237D01*
G37*
%LPD*%
%LPC*%
G36*
X453229Y249237D02*
X453229Y249237D01*
X445558Y251293D01*
X438680Y255264D01*
X433064Y260880D01*
X429093Y267758D01*
X427037Y275429D01*
X427037Y283371D01*
X429093Y291042D01*
X431165Y294632D01*
X431174Y294654D01*
X431188Y294674D01*
X431217Y294769D01*
X431252Y294862D01*
X431253Y294886D01*
X431260Y294909D01*
X431258Y295008D01*
X431261Y295108D01*
X431254Y295131D01*
X431254Y295155D01*
X431220Y295248D01*
X431191Y295344D01*
X431178Y295364D01*
X431169Y295386D01*
X431107Y295464D01*
X431050Y295545D01*
X431031Y295559D01*
X431016Y295578D01*
X430932Y295632D01*
X430852Y295691D01*
X430829Y295698D01*
X430809Y295711D01*
X430712Y295735D01*
X430618Y295766D01*
X430594Y295765D01*
X430570Y295771D01*
X430471Y295763D01*
X430372Y295762D01*
X430349Y295754D01*
X430325Y295752D01*
X430234Y295713D01*
X430140Y295680D01*
X430121Y295665D01*
X430099Y295656D01*
X429968Y295551D01*
X427158Y292741D01*
X421929Y290575D01*
X417403Y290575D01*
X417332Y290564D01*
X417260Y290562D01*
X417211Y290544D01*
X417160Y290536D01*
X417097Y290502D01*
X417029Y290477D01*
X416989Y290445D01*
X416943Y290420D01*
X416893Y290368D01*
X416837Y290324D01*
X416809Y290280D01*
X416773Y290242D01*
X416743Y290177D01*
X416704Y290117D01*
X416692Y290066D01*
X416670Y290019D01*
X416662Y289948D01*
X416644Y289878D01*
X416648Y289826D01*
X416643Y289775D01*
X416658Y289704D01*
X416663Y289633D01*
X416684Y289585D01*
X416695Y289534D01*
X416732Y289473D01*
X416760Y289407D01*
X416805Y289351D01*
X416821Y289323D01*
X416839Y289308D01*
X416865Y289276D01*
X418593Y287547D01*
X420783Y282261D01*
X420783Y276539D01*
X418593Y271253D01*
X414547Y267207D01*
X409261Y265017D01*
X403539Y265017D01*
X398253Y267207D01*
X394207Y271253D01*
X392017Y276539D01*
X392017Y282261D01*
X394207Y287547D01*
X398253Y291593D01*
X403539Y293783D01*
X408163Y293783D01*
X408233Y293794D01*
X408305Y293796D01*
X408354Y293814D01*
X408405Y293822D01*
X408469Y293856D01*
X408536Y293881D01*
X408577Y293913D01*
X408623Y293938D01*
X408672Y293990D01*
X408728Y294034D01*
X408756Y294078D01*
X408792Y294116D01*
X408822Y294181D01*
X408861Y294241D01*
X408874Y294292D01*
X408896Y294339D01*
X408904Y294410D01*
X408921Y294480D01*
X408917Y294532D01*
X408923Y294583D01*
X408908Y294654D01*
X408902Y294725D01*
X408882Y294773D01*
X408871Y294824D01*
X408834Y294885D01*
X408806Y294951D01*
X408761Y295007D01*
X408744Y295035D01*
X408727Y295050D01*
X408701Y295082D01*
X407041Y296742D01*
X404875Y301971D01*
X404875Y307629D01*
X407041Y312858D01*
X411042Y316859D01*
X416271Y319025D01*
X421929Y319025D01*
X427158Y316859D01*
X431159Y312858D01*
X433325Y307629D01*
X433325Y301971D01*
X432110Y299038D01*
X432088Y298943D01*
X432059Y298850D01*
X432060Y298824D01*
X432054Y298798D01*
X432063Y298701D01*
X432065Y298604D01*
X432074Y298579D01*
X432077Y298553D01*
X432116Y298464D01*
X432150Y298373D01*
X432166Y298352D01*
X432177Y298329D01*
X432243Y298257D01*
X432304Y298181D01*
X432325Y298167D01*
X432343Y298147D01*
X432429Y298100D01*
X432510Y298048D01*
X432536Y298041D01*
X432559Y298029D01*
X432655Y298012D01*
X432749Y297988D01*
X432775Y297990D01*
X432801Y297985D01*
X432897Y297999D01*
X432994Y298007D01*
X433018Y298017D01*
X433044Y298021D01*
X433131Y298065D01*
X433220Y298103D01*
X433246Y298124D01*
X433263Y298132D01*
X433287Y298156D01*
X433351Y298208D01*
X438680Y303536D01*
X445558Y307507D01*
X453229Y309563D01*
X461171Y309563D01*
X468842Y307507D01*
X475720Y303536D01*
X481336Y297920D01*
X485307Y291042D01*
X487363Y283371D01*
X487363Y275429D01*
X485307Y267758D01*
X481336Y260880D01*
X475720Y255264D01*
X468842Y251293D01*
X461171Y249237D01*
X453229Y249237D01*
G37*
%LPD*%
%LPC*%
G36*
X97629Y249237D02*
X97629Y249237D01*
X89958Y251293D01*
X83080Y255264D01*
X77464Y260880D01*
X73493Y267758D01*
X71437Y275429D01*
X71437Y283371D01*
X73493Y291042D01*
X75565Y294632D01*
X75574Y294654D01*
X75588Y294674D01*
X75617Y294769D01*
X75652Y294862D01*
X75653Y294886D01*
X75660Y294909D01*
X75658Y295008D01*
X75661Y295108D01*
X75654Y295131D01*
X75654Y295155D01*
X75620Y295248D01*
X75591Y295344D01*
X75578Y295364D01*
X75569Y295386D01*
X75507Y295464D01*
X75450Y295545D01*
X75431Y295559D01*
X75416Y295578D01*
X75332Y295632D01*
X75252Y295691D01*
X75229Y295698D01*
X75209Y295711D01*
X75112Y295735D01*
X75018Y295766D01*
X74994Y295765D01*
X74970Y295771D01*
X74871Y295763D01*
X74772Y295762D01*
X74749Y295754D01*
X74725Y295752D01*
X74634Y295713D01*
X74540Y295680D01*
X74521Y295665D01*
X74499Y295656D01*
X74368Y295551D01*
X71558Y292741D01*
X66329Y290575D01*
X61803Y290575D01*
X61732Y290564D01*
X61660Y290562D01*
X61611Y290544D01*
X61560Y290536D01*
X61497Y290502D01*
X61429Y290477D01*
X61389Y290445D01*
X61343Y290420D01*
X61293Y290368D01*
X61237Y290324D01*
X61209Y290280D01*
X61173Y290242D01*
X61143Y290177D01*
X61104Y290117D01*
X61092Y290066D01*
X61070Y290019D01*
X61062Y289948D01*
X61044Y289878D01*
X61048Y289826D01*
X61043Y289775D01*
X61058Y289704D01*
X61063Y289633D01*
X61084Y289585D01*
X61095Y289534D01*
X61132Y289473D01*
X61160Y289407D01*
X61205Y289351D01*
X61221Y289323D01*
X61239Y289308D01*
X61265Y289276D01*
X62993Y287547D01*
X65183Y282261D01*
X65183Y276539D01*
X62993Y271253D01*
X58947Y267207D01*
X53661Y265017D01*
X47939Y265017D01*
X42653Y267207D01*
X38607Y271253D01*
X36417Y276539D01*
X36417Y282261D01*
X38607Y287547D01*
X42653Y291593D01*
X47939Y293783D01*
X52563Y293783D01*
X52633Y293794D01*
X52705Y293796D01*
X52754Y293814D01*
X52805Y293822D01*
X52869Y293856D01*
X52936Y293881D01*
X52977Y293913D01*
X53023Y293938D01*
X53072Y293990D01*
X53128Y294034D01*
X53156Y294078D01*
X53192Y294116D01*
X53222Y294181D01*
X53261Y294241D01*
X53274Y294292D01*
X53296Y294339D01*
X53304Y294410D01*
X53321Y294480D01*
X53317Y294532D01*
X53323Y294583D01*
X53308Y294654D01*
X53302Y294725D01*
X53282Y294773D01*
X53271Y294824D01*
X53234Y294885D01*
X53206Y294951D01*
X53161Y295007D01*
X53144Y295035D01*
X53127Y295050D01*
X53101Y295082D01*
X51441Y296742D01*
X49275Y301971D01*
X49275Y307629D01*
X51441Y312858D01*
X55442Y316859D01*
X60671Y319025D01*
X66329Y319025D01*
X71558Y316859D01*
X75559Y312858D01*
X77725Y307629D01*
X77725Y301971D01*
X76510Y299038D01*
X76488Y298943D01*
X76459Y298850D01*
X76460Y298824D01*
X76454Y298798D01*
X76463Y298701D01*
X76465Y298604D01*
X76474Y298579D01*
X76477Y298553D01*
X76516Y298464D01*
X76550Y298373D01*
X76566Y298352D01*
X76577Y298329D01*
X76643Y298257D01*
X76704Y298181D01*
X76725Y298167D01*
X76743Y298147D01*
X76829Y298100D01*
X76910Y298048D01*
X76936Y298041D01*
X76959Y298029D01*
X77055Y298011D01*
X77149Y297988D01*
X77175Y297990D01*
X77201Y297985D01*
X77297Y297999D01*
X77394Y298007D01*
X77418Y298017D01*
X77444Y298021D01*
X77531Y298065D01*
X77620Y298103D01*
X77646Y298124D01*
X77663Y298132D01*
X77687Y298156D01*
X77751Y298208D01*
X83080Y303536D01*
X89958Y307507D01*
X97629Y309563D01*
X105571Y309563D01*
X113242Y307507D01*
X120120Y303536D01*
X125736Y297920D01*
X129707Y291042D01*
X131763Y283371D01*
X131763Y275429D01*
X129707Y267758D01*
X125736Y260880D01*
X120120Y255264D01*
X113242Y251293D01*
X105571Y249237D01*
X97629Y249237D01*
G37*
%LPD*%
%LPC*%
G36*
X453229Y71437D02*
X453229Y71437D01*
X445558Y73493D01*
X438680Y77464D01*
X433064Y83080D01*
X429093Y89958D01*
X427037Y97629D01*
X427037Y105571D01*
X429093Y113242D01*
X431165Y116832D01*
X431174Y116854D01*
X431188Y116874D01*
X431217Y116969D01*
X431252Y117062D01*
X431253Y117086D01*
X431260Y117109D01*
X431258Y117208D01*
X431261Y117308D01*
X431254Y117331D01*
X431254Y117355D01*
X431220Y117448D01*
X431191Y117544D01*
X431178Y117564D01*
X431169Y117586D01*
X431107Y117664D01*
X431050Y117745D01*
X431031Y117759D01*
X431016Y117778D01*
X430932Y117832D01*
X430852Y117891D01*
X430829Y117898D01*
X430809Y117911D01*
X430712Y117935D01*
X430618Y117966D01*
X430594Y117965D01*
X430570Y117971D01*
X430471Y117963D01*
X430372Y117962D01*
X430349Y117954D01*
X430325Y117952D01*
X430234Y117913D01*
X430140Y117880D01*
X430121Y117865D01*
X430099Y117856D01*
X429968Y117751D01*
X427158Y114941D01*
X421929Y112775D01*
X417403Y112775D01*
X417332Y112764D01*
X417260Y112762D01*
X417211Y112744D01*
X417160Y112736D01*
X417097Y112702D01*
X417029Y112677D01*
X416989Y112645D01*
X416943Y112620D01*
X416893Y112568D01*
X416837Y112524D01*
X416809Y112480D01*
X416773Y112442D01*
X416743Y112377D01*
X416704Y112317D01*
X416692Y112266D01*
X416670Y112219D01*
X416662Y112148D01*
X416644Y112078D01*
X416648Y112026D01*
X416643Y111975D01*
X416658Y111904D01*
X416663Y111833D01*
X416684Y111785D01*
X416695Y111734D01*
X416732Y111673D01*
X416760Y111607D01*
X416805Y111551D01*
X416821Y111523D01*
X416839Y111508D01*
X416865Y111476D01*
X418593Y109747D01*
X420783Y104461D01*
X420783Y98739D01*
X418593Y93453D01*
X414547Y89407D01*
X409261Y87217D01*
X403539Y87217D01*
X398253Y89407D01*
X394207Y93453D01*
X392017Y98739D01*
X392017Y104461D01*
X394207Y109747D01*
X398253Y113793D01*
X403539Y115983D01*
X408163Y115983D01*
X408233Y115994D01*
X408305Y115996D01*
X408354Y116014D01*
X408405Y116022D01*
X408469Y116056D01*
X408536Y116081D01*
X408577Y116113D01*
X408623Y116138D01*
X408672Y116190D01*
X408728Y116234D01*
X408756Y116278D01*
X408792Y116316D01*
X408822Y116381D01*
X408861Y116441D01*
X408874Y116492D01*
X408896Y116539D01*
X408904Y116610D01*
X408921Y116680D01*
X408917Y116732D01*
X408923Y116783D01*
X408908Y116854D01*
X408902Y116925D01*
X408882Y116973D01*
X408871Y117024D01*
X408834Y117085D01*
X408806Y117151D01*
X408761Y117207D01*
X408744Y117235D01*
X408727Y117250D01*
X408701Y117282D01*
X407041Y118942D01*
X404875Y124171D01*
X404875Y129829D01*
X407041Y135058D01*
X411042Y139059D01*
X416271Y141225D01*
X421929Y141225D01*
X427158Y139059D01*
X431159Y135058D01*
X433325Y129829D01*
X433325Y124171D01*
X432110Y121238D01*
X432088Y121143D01*
X432059Y121050D01*
X432060Y121024D01*
X432054Y120998D01*
X432063Y120901D01*
X432065Y120804D01*
X432074Y120779D01*
X432077Y120753D01*
X432116Y120664D01*
X432150Y120573D01*
X432166Y120552D01*
X432177Y120529D01*
X432243Y120457D01*
X432304Y120381D01*
X432325Y120367D01*
X432343Y120347D01*
X432429Y120300D01*
X432510Y120248D01*
X432536Y120241D01*
X432559Y120229D01*
X432655Y120211D01*
X432749Y120188D01*
X432775Y120190D01*
X432801Y120185D01*
X432897Y120199D01*
X432994Y120207D01*
X433018Y120217D01*
X433044Y120221D01*
X433131Y120265D01*
X433220Y120303D01*
X433246Y120324D01*
X433263Y120332D01*
X433287Y120356D01*
X433351Y120408D01*
X438680Y125736D01*
X445558Y129707D01*
X453229Y131763D01*
X461171Y131763D01*
X468842Y129707D01*
X475720Y125736D01*
X481336Y120120D01*
X485307Y113242D01*
X487363Y105571D01*
X487363Y97629D01*
X485307Y89958D01*
X481336Y83080D01*
X475720Y77464D01*
X468842Y73493D01*
X461171Y71437D01*
X453229Y71437D01*
G37*
%LPD*%
%LPC*%
G36*
X808829Y71437D02*
X808829Y71437D01*
X801158Y73493D01*
X794280Y77464D01*
X788664Y83080D01*
X784693Y89958D01*
X782637Y97629D01*
X782637Y105571D01*
X784693Y113242D01*
X786765Y116832D01*
X786774Y116854D01*
X786788Y116874D01*
X786817Y116969D01*
X786852Y117062D01*
X786853Y117086D01*
X786860Y117109D01*
X786858Y117208D01*
X786861Y117308D01*
X786854Y117331D01*
X786854Y117355D01*
X786820Y117448D01*
X786791Y117544D01*
X786778Y117564D01*
X786769Y117586D01*
X786707Y117664D01*
X786650Y117745D01*
X786631Y117759D01*
X786616Y117778D01*
X786532Y117832D01*
X786452Y117891D01*
X786429Y117898D01*
X786409Y117911D01*
X786312Y117935D01*
X786218Y117966D01*
X786194Y117965D01*
X786170Y117971D01*
X786071Y117963D01*
X785972Y117962D01*
X785949Y117954D01*
X785925Y117952D01*
X785834Y117913D01*
X785740Y117880D01*
X785721Y117865D01*
X785699Y117856D01*
X785568Y117751D01*
X782758Y114941D01*
X777529Y112775D01*
X773003Y112775D01*
X772932Y112764D01*
X772860Y112762D01*
X772811Y112744D01*
X772760Y112736D01*
X772697Y112702D01*
X772629Y112677D01*
X772589Y112645D01*
X772543Y112620D01*
X772493Y112568D01*
X772437Y112524D01*
X772409Y112480D01*
X772373Y112442D01*
X772343Y112377D01*
X772304Y112317D01*
X772292Y112266D01*
X772270Y112219D01*
X772262Y112148D01*
X772244Y112078D01*
X772248Y112026D01*
X772243Y111975D01*
X772258Y111904D01*
X772263Y111833D01*
X772284Y111785D01*
X772295Y111734D01*
X772332Y111673D01*
X772360Y111607D01*
X772405Y111551D01*
X772421Y111523D01*
X772439Y111508D01*
X772465Y111476D01*
X774193Y109747D01*
X776383Y104461D01*
X776383Y98739D01*
X774193Y93453D01*
X770147Y89407D01*
X764861Y87217D01*
X759139Y87217D01*
X753853Y89407D01*
X749807Y93453D01*
X747617Y98739D01*
X747617Y104461D01*
X749807Y109747D01*
X753853Y113793D01*
X759139Y115983D01*
X763763Y115983D01*
X763833Y115994D01*
X763905Y115996D01*
X763954Y116014D01*
X764005Y116022D01*
X764069Y116056D01*
X764136Y116081D01*
X764177Y116113D01*
X764223Y116138D01*
X764272Y116190D01*
X764328Y116234D01*
X764356Y116278D01*
X764392Y116316D01*
X764422Y116381D01*
X764461Y116441D01*
X764474Y116492D01*
X764496Y116539D01*
X764504Y116610D01*
X764521Y116680D01*
X764517Y116732D01*
X764523Y116783D01*
X764508Y116854D01*
X764502Y116925D01*
X764482Y116973D01*
X764471Y117024D01*
X764434Y117085D01*
X764406Y117151D01*
X764361Y117207D01*
X764344Y117235D01*
X764327Y117250D01*
X764301Y117282D01*
X762641Y118942D01*
X760475Y124171D01*
X760475Y129829D01*
X762641Y135058D01*
X766642Y139059D01*
X771871Y141225D01*
X777529Y141225D01*
X782758Y139059D01*
X786759Y135058D01*
X788925Y129829D01*
X788925Y124171D01*
X787710Y121238D01*
X787688Y121143D01*
X787659Y121050D01*
X787660Y121024D01*
X787654Y120998D01*
X787663Y120901D01*
X787665Y120804D01*
X787674Y120779D01*
X787677Y120753D01*
X787716Y120664D01*
X787750Y120573D01*
X787766Y120552D01*
X787777Y120529D01*
X787843Y120457D01*
X787904Y120381D01*
X787925Y120367D01*
X787943Y120347D01*
X788029Y120300D01*
X788110Y120248D01*
X788136Y120241D01*
X788159Y120229D01*
X788255Y120211D01*
X788349Y120188D01*
X788375Y120190D01*
X788401Y120185D01*
X788497Y120199D01*
X788594Y120207D01*
X788618Y120217D01*
X788644Y120221D01*
X788731Y120265D01*
X788820Y120303D01*
X788846Y120324D01*
X788863Y120332D01*
X788887Y120356D01*
X788951Y120408D01*
X794280Y125736D01*
X801158Y129707D01*
X808829Y131763D01*
X816771Y131763D01*
X824442Y129707D01*
X831320Y125736D01*
X836936Y120120D01*
X840907Y113242D01*
X842963Y105571D01*
X842963Y97629D01*
X840907Y89958D01*
X836936Y83080D01*
X831320Y77464D01*
X824442Y73493D01*
X816771Y71437D01*
X808829Y71437D01*
G37*
%LPD*%
%LPC*%
G36*
X275429Y249237D02*
X275429Y249237D01*
X267758Y251293D01*
X260880Y255264D01*
X255264Y260880D01*
X251293Y267758D01*
X249237Y275429D01*
X249237Y283371D01*
X251293Y291042D01*
X253365Y294632D01*
X253374Y294654D01*
X253388Y294674D01*
X253417Y294769D01*
X253452Y294862D01*
X253453Y294886D01*
X253460Y294909D01*
X253458Y295008D01*
X253461Y295108D01*
X253454Y295131D01*
X253454Y295155D01*
X253420Y295248D01*
X253391Y295344D01*
X253378Y295364D01*
X253369Y295386D01*
X253307Y295464D01*
X253250Y295545D01*
X253231Y295559D01*
X253216Y295578D01*
X253132Y295632D01*
X253052Y295691D01*
X253029Y295698D01*
X253009Y295711D01*
X252912Y295735D01*
X252818Y295766D01*
X252794Y295765D01*
X252770Y295771D01*
X252671Y295763D01*
X252572Y295762D01*
X252549Y295754D01*
X252525Y295752D01*
X252434Y295713D01*
X252340Y295680D01*
X252321Y295665D01*
X252299Y295656D01*
X252168Y295551D01*
X249358Y292741D01*
X244129Y290575D01*
X239603Y290575D01*
X239532Y290564D01*
X239460Y290562D01*
X239411Y290544D01*
X239360Y290536D01*
X239297Y290502D01*
X239229Y290477D01*
X239189Y290445D01*
X239143Y290420D01*
X239093Y290368D01*
X239037Y290324D01*
X239009Y290280D01*
X238973Y290242D01*
X238943Y290177D01*
X238904Y290117D01*
X238892Y290066D01*
X238870Y290019D01*
X238862Y289948D01*
X238844Y289878D01*
X238848Y289826D01*
X238843Y289775D01*
X238858Y289704D01*
X238863Y289633D01*
X238884Y289585D01*
X238895Y289534D01*
X238932Y289473D01*
X238960Y289407D01*
X239005Y289351D01*
X239021Y289323D01*
X239039Y289308D01*
X239065Y289276D01*
X240793Y287547D01*
X242983Y282261D01*
X242983Y276539D01*
X240793Y271253D01*
X236747Y267207D01*
X231461Y265017D01*
X225739Y265017D01*
X220453Y267207D01*
X216407Y271253D01*
X214217Y276539D01*
X214217Y282261D01*
X216407Y287547D01*
X220453Y291593D01*
X225739Y293783D01*
X230363Y293783D01*
X230433Y293794D01*
X230505Y293796D01*
X230554Y293814D01*
X230605Y293822D01*
X230669Y293856D01*
X230736Y293881D01*
X230777Y293913D01*
X230823Y293938D01*
X230872Y293990D01*
X230928Y294034D01*
X230956Y294078D01*
X230992Y294116D01*
X231022Y294181D01*
X231061Y294241D01*
X231074Y294292D01*
X231096Y294339D01*
X231104Y294410D01*
X231121Y294480D01*
X231117Y294532D01*
X231123Y294583D01*
X231108Y294654D01*
X231102Y294725D01*
X231082Y294773D01*
X231071Y294824D01*
X231034Y294885D01*
X231006Y294951D01*
X230961Y295007D01*
X230944Y295035D01*
X230927Y295050D01*
X230901Y295082D01*
X229241Y296742D01*
X227075Y301971D01*
X227075Y307629D01*
X229241Y312858D01*
X233242Y316859D01*
X238471Y319025D01*
X244129Y319025D01*
X249358Y316859D01*
X253359Y312858D01*
X255525Y307629D01*
X255525Y301971D01*
X254310Y299038D01*
X254288Y298943D01*
X254259Y298850D01*
X254260Y298824D01*
X254254Y298798D01*
X254263Y298701D01*
X254265Y298604D01*
X254274Y298579D01*
X254277Y298553D01*
X254316Y298464D01*
X254350Y298373D01*
X254366Y298352D01*
X254377Y298329D01*
X254443Y298257D01*
X254504Y298181D01*
X254525Y298167D01*
X254543Y298147D01*
X254629Y298100D01*
X254710Y298048D01*
X254736Y298041D01*
X254759Y298029D01*
X254855Y298011D01*
X254949Y297988D01*
X254975Y297990D01*
X255001Y297985D01*
X255097Y297999D01*
X255194Y298007D01*
X255218Y298017D01*
X255244Y298021D01*
X255331Y298065D01*
X255420Y298103D01*
X255446Y298124D01*
X255463Y298132D01*
X255487Y298156D01*
X255551Y298208D01*
X260880Y303536D01*
X267758Y307507D01*
X275429Y309563D01*
X283371Y309563D01*
X291042Y307507D01*
X297920Y303536D01*
X303536Y297920D01*
X307507Y291042D01*
X309563Y283371D01*
X309563Y275429D01*
X307507Y267758D01*
X303536Y260880D01*
X297920Y255264D01*
X291042Y251293D01*
X283371Y249237D01*
X275429Y249237D01*
G37*
%LPD*%
%LPC*%
G36*
X1164429Y249237D02*
X1164429Y249237D01*
X1156758Y251293D01*
X1149880Y255264D01*
X1144264Y260880D01*
X1140293Y267758D01*
X1138237Y275429D01*
X1138237Y283371D01*
X1140293Y291042D01*
X1142365Y294632D01*
X1142374Y294654D01*
X1142388Y294674D01*
X1142417Y294769D01*
X1142452Y294862D01*
X1142453Y294886D01*
X1142460Y294909D01*
X1142458Y295008D01*
X1142461Y295108D01*
X1142454Y295131D01*
X1142454Y295155D01*
X1142420Y295248D01*
X1142391Y295344D01*
X1142378Y295364D01*
X1142369Y295386D01*
X1142307Y295464D01*
X1142250Y295545D01*
X1142231Y295559D01*
X1142216Y295578D01*
X1142132Y295632D01*
X1142052Y295691D01*
X1142029Y295698D01*
X1142009Y295711D01*
X1141912Y295735D01*
X1141818Y295766D01*
X1141794Y295765D01*
X1141770Y295771D01*
X1141671Y295763D01*
X1141572Y295762D01*
X1141549Y295754D01*
X1141525Y295752D01*
X1141434Y295713D01*
X1141340Y295680D01*
X1141321Y295665D01*
X1141299Y295656D01*
X1141168Y295551D01*
X1138358Y292741D01*
X1133129Y290575D01*
X1128603Y290575D01*
X1128532Y290564D01*
X1128460Y290562D01*
X1128411Y290544D01*
X1128360Y290536D01*
X1128297Y290502D01*
X1128229Y290477D01*
X1128189Y290445D01*
X1128143Y290420D01*
X1128093Y290368D01*
X1128037Y290324D01*
X1128009Y290280D01*
X1127973Y290242D01*
X1127943Y290177D01*
X1127904Y290117D01*
X1127892Y290066D01*
X1127870Y290019D01*
X1127862Y289948D01*
X1127844Y289878D01*
X1127848Y289826D01*
X1127843Y289775D01*
X1127858Y289704D01*
X1127863Y289633D01*
X1127884Y289585D01*
X1127895Y289534D01*
X1127932Y289473D01*
X1127960Y289407D01*
X1128005Y289351D01*
X1128021Y289323D01*
X1128039Y289308D01*
X1128065Y289276D01*
X1129793Y287547D01*
X1131983Y282261D01*
X1131983Y276539D01*
X1129793Y271253D01*
X1125747Y267207D01*
X1120461Y265017D01*
X1114739Y265017D01*
X1109453Y267207D01*
X1105407Y271253D01*
X1103217Y276539D01*
X1103217Y282261D01*
X1105407Y287547D01*
X1109453Y291593D01*
X1114739Y293783D01*
X1119363Y293783D01*
X1119433Y293794D01*
X1119505Y293796D01*
X1119554Y293814D01*
X1119605Y293822D01*
X1119669Y293856D01*
X1119736Y293881D01*
X1119777Y293913D01*
X1119823Y293938D01*
X1119872Y293990D01*
X1119928Y294034D01*
X1119956Y294078D01*
X1119992Y294116D01*
X1120022Y294181D01*
X1120061Y294241D01*
X1120074Y294292D01*
X1120096Y294339D01*
X1120104Y294410D01*
X1120121Y294480D01*
X1120117Y294532D01*
X1120123Y294583D01*
X1120108Y294654D01*
X1120102Y294725D01*
X1120082Y294773D01*
X1120071Y294824D01*
X1120034Y294885D01*
X1120006Y294951D01*
X1119961Y295007D01*
X1119944Y295035D01*
X1119927Y295050D01*
X1119901Y295082D01*
X1118241Y296742D01*
X1116075Y301971D01*
X1116075Y307629D01*
X1118241Y312858D01*
X1122242Y316859D01*
X1127471Y319025D01*
X1133129Y319025D01*
X1138358Y316859D01*
X1142359Y312858D01*
X1144525Y307629D01*
X1144525Y301971D01*
X1143310Y299038D01*
X1143288Y298943D01*
X1143259Y298850D01*
X1143260Y298824D01*
X1143254Y298798D01*
X1143263Y298701D01*
X1143265Y298604D01*
X1143274Y298579D01*
X1143277Y298553D01*
X1143316Y298464D01*
X1143350Y298373D01*
X1143366Y298352D01*
X1143377Y298329D01*
X1143443Y298257D01*
X1143504Y298181D01*
X1143525Y298167D01*
X1143543Y298147D01*
X1143629Y298100D01*
X1143710Y298048D01*
X1143736Y298041D01*
X1143759Y298029D01*
X1143855Y298011D01*
X1143949Y297988D01*
X1143975Y297990D01*
X1144001Y297985D01*
X1144097Y297999D01*
X1144194Y298007D01*
X1144218Y298017D01*
X1144244Y298021D01*
X1144331Y298065D01*
X1144420Y298103D01*
X1144446Y298124D01*
X1144463Y298132D01*
X1144487Y298156D01*
X1144551Y298208D01*
X1149880Y303536D01*
X1156758Y307507D01*
X1164429Y309563D01*
X1172371Y309563D01*
X1180042Y307507D01*
X1186920Y303536D01*
X1192536Y297920D01*
X1196507Y291042D01*
X1198563Y283371D01*
X1198563Y275429D01*
X1196507Y267758D01*
X1192536Y260880D01*
X1186920Y255264D01*
X1180042Y251293D01*
X1172371Y249237D01*
X1164429Y249237D01*
G37*
%LPD*%
%LPC*%
G36*
X1342229Y312737D02*
X1342229Y312737D01*
X1334558Y314793D01*
X1327680Y318764D01*
X1322064Y324380D01*
X1318093Y331258D01*
X1316037Y338929D01*
X1316037Y346871D01*
X1318093Y354542D01*
X1320165Y358132D01*
X1320174Y358155D01*
X1320188Y358174D01*
X1320217Y358269D01*
X1320252Y358362D01*
X1320253Y358386D01*
X1320260Y358409D01*
X1320258Y358508D01*
X1320261Y358608D01*
X1320254Y358631D01*
X1320254Y358655D01*
X1320220Y358748D01*
X1320192Y358844D01*
X1320178Y358864D01*
X1320169Y358886D01*
X1320107Y358964D01*
X1320050Y359045D01*
X1320031Y359059D01*
X1320016Y359078D01*
X1319932Y359132D01*
X1319852Y359191D01*
X1319829Y359198D01*
X1319809Y359211D01*
X1319712Y359235D01*
X1319618Y359266D01*
X1319594Y359265D01*
X1319570Y359271D01*
X1319471Y359263D01*
X1319372Y359262D01*
X1319349Y359254D01*
X1319325Y359252D01*
X1319234Y359213D01*
X1319140Y359180D01*
X1319121Y359165D01*
X1319099Y359156D01*
X1318968Y359051D01*
X1316158Y356241D01*
X1310929Y354075D01*
X1306403Y354075D01*
X1306332Y354064D01*
X1306260Y354062D01*
X1306211Y354044D01*
X1306160Y354036D01*
X1306097Y354002D01*
X1306029Y353977D01*
X1305989Y353945D01*
X1305943Y353920D01*
X1305893Y353868D01*
X1305837Y353824D01*
X1305809Y353780D01*
X1305773Y353742D01*
X1305743Y353677D01*
X1305704Y353617D01*
X1305692Y353566D01*
X1305670Y353519D01*
X1305662Y353448D01*
X1305644Y353378D01*
X1305648Y353326D01*
X1305643Y353275D01*
X1305658Y353204D01*
X1305663Y353133D01*
X1305684Y353085D01*
X1305695Y353034D01*
X1305732Y352973D01*
X1305760Y352907D01*
X1305805Y352851D01*
X1305821Y352823D01*
X1305839Y352808D01*
X1305865Y352776D01*
X1307593Y351047D01*
X1309783Y345761D01*
X1309783Y340039D01*
X1307593Y334753D01*
X1303547Y330707D01*
X1298261Y328517D01*
X1292539Y328517D01*
X1287253Y330707D01*
X1283207Y334753D01*
X1281017Y340039D01*
X1281017Y345761D01*
X1283207Y351047D01*
X1287253Y355093D01*
X1292539Y357283D01*
X1297163Y357283D01*
X1297233Y357294D01*
X1297305Y357296D01*
X1297354Y357314D01*
X1297405Y357322D01*
X1297469Y357356D01*
X1297536Y357381D01*
X1297577Y357413D01*
X1297623Y357438D01*
X1297672Y357490D01*
X1297728Y357534D01*
X1297756Y357578D01*
X1297792Y357616D01*
X1297822Y357681D01*
X1297861Y357741D01*
X1297874Y357792D01*
X1297896Y357839D01*
X1297904Y357910D01*
X1297921Y357980D01*
X1297917Y358032D01*
X1297923Y358083D01*
X1297908Y358154D01*
X1297902Y358225D01*
X1297882Y358273D01*
X1297871Y358324D01*
X1297834Y358385D01*
X1297806Y358451D01*
X1297761Y358507D01*
X1297744Y358535D01*
X1297727Y358550D01*
X1297701Y358582D01*
X1296041Y360242D01*
X1293875Y365471D01*
X1293875Y371129D01*
X1296041Y376358D01*
X1300042Y380359D01*
X1305271Y382525D01*
X1310929Y382525D01*
X1316158Y380359D01*
X1320159Y376358D01*
X1322325Y371129D01*
X1322325Y365471D01*
X1321110Y362538D01*
X1321088Y362443D01*
X1321059Y362350D01*
X1321060Y362324D01*
X1321054Y362298D01*
X1321063Y362201D01*
X1321065Y362104D01*
X1321074Y362079D01*
X1321077Y362053D01*
X1321116Y361964D01*
X1321150Y361873D01*
X1321166Y361852D01*
X1321177Y361829D01*
X1321243Y361757D01*
X1321304Y361681D01*
X1321325Y361667D01*
X1321343Y361647D01*
X1321429Y361600D01*
X1321510Y361548D01*
X1321536Y361541D01*
X1321559Y361529D01*
X1321655Y361511D01*
X1321749Y361488D01*
X1321775Y361490D01*
X1321801Y361485D01*
X1321897Y361499D01*
X1321994Y361507D01*
X1322018Y361517D01*
X1322044Y361521D01*
X1322131Y361565D01*
X1322220Y361603D01*
X1322246Y361624D01*
X1322263Y361632D01*
X1322287Y361656D01*
X1322351Y361708D01*
X1327680Y367036D01*
X1334558Y371007D01*
X1342229Y373063D01*
X1350171Y373063D01*
X1357842Y371007D01*
X1364720Y367036D01*
X1370336Y361420D01*
X1374307Y354542D01*
X1376363Y346871D01*
X1376363Y338929D01*
X1374307Y331258D01*
X1370336Y324380D01*
X1364720Y318764D01*
X1357842Y314793D01*
X1350171Y312737D01*
X1342229Y312737D01*
G37*
%LPD*%
%LPC*%
G36*
X808829Y427037D02*
X808829Y427037D01*
X801158Y429093D01*
X794280Y433064D01*
X788664Y438680D01*
X784693Y445558D01*
X782637Y453229D01*
X782637Y461171D01*
X784693Y468842D01*
X786765Y472432D01*
X786774Y472455D01*
X786788Y472474D01*
X786817Y472569D01*
X786852Y472662D01*
X786853Y472686D01*
X786860Y472709D01*
X786858Y472808D01*
X786861Y472908D01*
X786854Y472931D01*
X786854Y472955D01*
X786820Y473048D01*
X786792Y473144D01*
X786778Y473164D01*
X786769Y473186D01*
X786707Y473264D01*
X786650Y473345D01*
X786631Y473359D01*
X786616Y473378D01*
X786532Y473432D01*
X786452Y473491D01*
X786429Y473498D01*
X786409Y473511D01*
X786312Y473535D01*
X786218Y473566D01*
X786194Y473565D01*
X786170Y473571D01*
X786071Y473563D01*
X785972Y473562D01*
X785949Y473554D01*
X785925Y473552D01*
X785834Y473513D01*
X785740Y473480D01*
X785721Y473465D01*
X785699Y473456D01*
X785568Y473351D01*
X782758Y470541D01*
X777529Y468375D01*
X773003Y468375D01*
X772932Y468364D01*
X772860Y468362D01*
X772811Y468344D01*
X772760Y468336D01*
X772697Y468302D01*
X772629Y468277D01*
X772589Y468245D01*
X772543Y468220D01*
X772493Y468168D01*
X772437Y468124D01*
X772409Y468080D01*
X772373Y468042D01*
X772343Y467977D01*
X772304Y467917D01*
X772292Y467866D01*
X772270Y467819D01*
X772262Y467748D01*
X772244Y467678D01*
X772248Y467626D01*
X772243Y467575D01*
X772258Y467504D01*
X772263Y467433D01*
X772284Y467385D01*
X772295Y467334D01*
X772332Y467273D01*
X772360Y467207D01*
X772405Y467151D01*
X772421Y467123D01*
X772439Y467108D01*
X772465Y467076D01*
X774193Y465347D01*
X776383Y460061D01*
X776383Y454339D01*
X774193Y449053D01*
X770147Y445007D01*
X764861Y442817D01*
X759139Y442817D01*
X753853Y445007D01*
X749807Y449053D01*
X747617Y454339D01*
X747617Y460061D01*
X749807Y465347D01*
X753853Y469393D01*
X759139Y471583D01*
X763763Y471583D01*
X763833Y471594D01*
X763905Y471596D01*
X763954Y471614D01*
X764005Y471622D01*
X764069Y471656D01*
X764136Y471681D01*
X764177Y471713D01*
X764223Y471738D01*
X764272Y471790D01*
X764328Y471834D01*
X764356Y471878D01*
X764392Y471916D01*
X764422Y471981D01*
X764461Y472041D01*
X764474Y472092D01*
X764496Y472139D01*
X764504Y472210D01*
X764521Y472280D01*
X764517Y472332D01*
X764523Y472383D01*
X764508Y472454D01*
X764502Y472525D01*
X764482Y472573D01*
X764471Y472624D01*
X764434Y472685D01*
X764406Y472751D01*
X764361Y472807D01*
X764344Y472835D01*
X764327Y472850D01*
X764301Y472882D01*
X762641Y474542D01*
X760475Y479771D01*
X760475Y485429D01*
X762641Y490658D01*
X766642Y494659D01*
X771871Y496825D01*
X777529Y496825D01*
X782758Y494659D01*
X786759Y490658D01*
X788925Y485429D01*
X788925Y479771D01*
X787710Y476838D01*
X787688Y476743D01*
X787659Y476650D01*
X787660Y476624D01*
X787654Y476598D01*
X787663Y476501D01*
X787665Y476404D01*
X787674Y476379D01*
X787677Y476353D01*
X787716Y476264D01*
X787750Y476173D01*
X787766Y476152D01*
X787777Y476129D01*
X787843Y476057D01*
X787904Y475981D01*
X787925Y475967D01*
X787943Y475947D01*
X788029Y475900D01*
X788110Y475848D01*
X788136Y475841D01*
X788159Y475829D01*
X788255Y475811D01*
X788349Y475788D01*
X788375Y475790D01*
X788401Y475785D01*
X788497Y475799D01*
X788594Y475807D01*
X788618Y475817D01*
X788644Y475821D01*
X788731Y475865D01*
X788820Y475903D01*
X788846Y475924D01*
X788863Y475932D01*
X788887Y475956D01*
X788951Y476008D01*
X794280Y481336D01*
X801158Y485307D01*
X808829Y487363D01*
X816771Y487363D01*
X824442Y485307D01*
X831320Y481336D01*
X836936Y475720D01*
X840907Y468842D01*
X842963Y461171D01*
X842963Y453229D01*
X840907Y445558D01*
X836936Y438680D01*
X831320Y433064D01*
X824442Y429093D01*
X816771Y427037D01*
X808829Y427037D01*
G37*
%LPD*%
%LPC*%
G36*
X453229Y427037D02*
X453229Y427037D01*
X445558Y429093D01*
X438680Y433064D01*
X433064Y438680D01*
X429093Y445558D01*
X427037Y453229D01*
X427037Y461171D01*
X429093Y468842D01*
X431165Y472432D01*
X431174Y472455D01*
X431188Y472474D01*
X431217Y472569D01*
X431252Y472662D01*
X431253Y472686D01*
X431260Y472709D01*
X431258Y472808D01*
X431261Y472908D01*
X431254Y472931D01*
X431254Y472955D01*
X431220Y473048D01*
X431192Y473144D01*
X431178Y473164D01*
X431169Y473186D01*
X431107Y473264D01*
X431050Y473345D01*
X431031Y473359D01*
X431016Y473378D01*
X430932Y473432D01*
X430852Y473491D01*
X430829Y473498D01*
X430809Y473511D01*
X430712Y473535D01*
X430618Y473566D01*
X430594Y473565D01*
X430570Y473571D01*
X430471Y473563D01*
X430372Y473562D01*
X430349Y473554D01*
X430325Y473552D01*
X430234Y473513D01*
X430140Y473480D01*
X430121Y473465D01*
X430099Y473456D01*
X429968Y473351D01*
X427158Y470541D01*
X421929Y468375D01*
X417403Y468375D01*
X417332Y468364D01*
X417260Y468362D01*
X417211Y468344D01*
X417160Y468336D01*
X417097Y468302D01*
X417029Y468277D01*
X416989Y468245D01*
X416943Y468220D01*
X416893Y468168D01*
X416837Y468124D01*
X416809Y468080D01*
X416773Y468042D01*
X416743Y467977D01*
X416704Y467917D01*
X416692Y467866D01*
X416670Y467819D01*
X416662Y467748D01*
X416644Y467678D01*
X416648Y467626D01*
X416643Y467575D01*
X416658Y467504D01*
X416663Y467433D01*
X416684Y467385D01*
X416695Y467334D01*
X416732Y467273D01*
X416760Y467207D01*
X416805Y467151D01*
X416821Y467123D01*
X416839Y467108D01*
X416865Y467076D01*
X418593Y465347D01*
X420783Y460061D01*
X420783Y454339D01*
X418593Y449053D01*
X414547Y445007D01*
X409261Y442817D01*
X403539Y442817D01*
X398253Y445007D01*
X394207Y449053D01*
X392017Y454339D01*
X392017Y460061D01*
X394207Y465347D01*
X398253Y469393D01*
X403539Y471583D01*
X408163Y471583D01*
X408233Y471594D01*
X408305Y471596D01*
X408354Y471614D01*
X408405Y471622D01*
X408469Y471656D01*
X408536Y471681D01*
X408577Y471713D01*
X408623Y471738D01*
X408672Y471790D01*
X408728Y471834D01*
X408756Y471878D01*
X408792Y471916D01*
X408822Y471981D01*
X408861Y472041D01*
X408874Y472092D01*
X408896Y472139D01*
X408904Y472210D01*
X408921Y472280D01*
X408917Y472332D01*
X408923Y472383D01*
X408908Y472454D01*
X408902Y472525D01*
X408882Y472573D01*
X408871Y472624D01*
X408834Y472685D01*
X408806Y472751D01*
X408761Y472807D01*
X408744Y472835D01*
X408727Y472850D01*
X408701Y472882D01*
X407041Y474542D01*
X404875Y479771D01*
X404875Y485429D01*
X407041Y490658D01*
X411042Y494659D01*
X416271Y496825D01*
X421929Y496825D01*
X427158Y494659D01*
X431159Y490658D01*
X433325Y485429D01*
X433325Y479771D01*
X432110Y476838D01*
X432088Y476743D01*
X432059Y476650D01*
X432060Y476624D01*
X432054Y476598D01*
X432063Y476501D01*
X432065Y476404D01*
X432074Y476379D01*
X432077Y476353D01*
X432116Y476264D01*
X432150Y476173D01*
X432166Y476152D01*
X432177Y476129D01*
X432243Y476057D01*
X432304Y475981D01*
X432325Y475967D01*
X432343Y475947D01*
X432429Y475900D01*
X432510Y475848D01*
X432536Y475841D01*
X432559Y475829D01*
X432655Y475811D01*
X432749Y475788D01*
X432775Y475790D01*
X432801Y475785D01*
X432897Y475799D01*
X432994Y475807D01*
X433018Y475817D01*
X433044Y475821D01*
X433131Y475865D01*
X433220Y475903D01*
X433246Y475924D01*
X433263Y475932D01*
X433287Y475956D01*
X433351Y476008D01*
X438680Y481336D01*
X445558Y485307D01*
X453229Y487363D01*
X461171Y487363D01*
X468842Y485307D01*
X475720Y481336D01*
X481336Y475720D01*
X485307Y468842D01*
X487363Y461171D01*
X487363Y453229D01*
X485307Y445558D01*
X481336Y438680D01*
X475720Y433064D01*
X468842Y429093D01*
X461171Y427037D01*
X453229Y427037D01*
G37*
%LPD*%
%LPC*%
G36*
X860739Y87217D02*
X860739Y87217D01*
X855453Y89407D01*
X851407Y93453D01*
X849217Y98739D01*
X849217Y104461D01*
X851407Y109747D01*
X855453Y113793D01*
X860739Y115983D01*
X866461Y115983D01*
X871747Y113793D01*
X875793Y109747D01*
X877983Y104461D01*
X877983Y98739D01*
X875793Y93453D01*
X871747Y89407D01*
X866461Y87217D01*
X860739Y87217D01*
G37*
%LPD*%
%LPC*%
G36*
X1394139Y328517D02*
X1394139Y328517D01*
X1388853Y330707D01*
X1384807Y334753D01*
X1382617Y340039D01*
X1382617Y345761D01*
X1384807Y351047D01*
X1388853Y355093D01*
X1394139Y357283D01*
X1399861Y357283D01*
X1405147Y355093D01*
X1409193Y351047D01*
X1411383Y345761D01*
X1411383Y340039D01*
X1409193Y334753D01*
X1405147Y330707D01*
X1399861Y328517D01*
X1394139Y328517D01*
G37*
%LPD*%
%LPC*%
G36*
X505139Y87217D02*
X505139Y87217D01*
X499853Y89407D01*
X495807Y93453D01*
X493617Y98739D01*
X493617Y104461D01*
X495807Y109747D01*
X499853Y113793D01*
X505139Y115983D01*
X510861Y115983D01*
X516147Y113793D01*
X520193Y109747D01*
X522383Y104461D01*
X522383Y98739D01*
X520193Y93453D01*
X516147Y89407D01*
X510861Y87217D01*
X505139Y87217D01*
G37*
%LPD*%
%LPC*%
G36*
X860739Y265017D02*
X860739Y265017D01*
X855453Y267207D01*
X851407Y271253D01*
X849217Y276539D01*
X849217Y282261D01*
X851407Y287547D01*
X855453Y291593D01*
X860739Y293783D01*
X866461Y293783D01*
X871747Y291593D01*
X875793Y287547D01*
X877983Y282261D01*
X877983Y276539D01*
X875793Y271253D01*
X871747Y267207D01*
X866461Y265017D01*
X860739Y265017D01*
G37*
%LPD*%
%LPC*%
G36*
X1216339Y265017D02*
X1216339Y265017D01*
X1211053Y267207D01*
X1207007Y271253D01*
X1204817Y276539D01*
X1204817Y282261D01*
X1207007Y287547D01*
X1211053Y291593D01*
X1216339Y293783D01*
X1222061Y293783D01*
X1227347Y291593D01*
X1231393Y287547D01*
X1233583Y282261D01*
X1233583Y276539D01*
X1231393Y271253D01*
X1227347Y267207D01*
X1222061Y265017D01*
X1216339Y265017D01*
G37*
%LPD*%
%LPC*%
G36*
X1038539Y265017D02*
X1038539Y265017D01*
X1033253Y267207D01*
X1029207Y271253D01*
X1027017Y276539D01*
X1027017Y282261D01*
X1029207Y287547D01*
X1033253Y291593D01*
X1038539Y293783D01*
X1044261Y293783D01*
X1049547Y291593D01*
X1053593Y287547D01*
X1055783Y282261D01*
X1055783Y276539D01*
X1053593Y271253D01*
X1049547Y267207D01*
X1044261Y265017D01*
X1038539Y265017D01*
G37*
%LPD*%
%LPC*%
G36*
X327339Y265017D02*
X327339Y265017D01*
X322053Y267207D01*
X318007Y271253D01*
X315817Y276539D01*
X315817Y282261D01*
X318007Y287547D01*
X322053Y291593D01*
X327339Y293783D01*
X333061Y293783D01*
X338347Y291593D01*
X342393Y287547D01*
X344583Y282261D01*
X344583Y276539D01*
X342393Y271253D01*
X338347Y267207D01*
X333061Y265017D01*
X327339Y265017D01*
G37*
%LPD*%
%LPC*%
G36*
X149539Y265017D02*
X149539Y265017D01*
X144253Y267207D01*
X140207Y271253D01*
X138017Y276539D01*
X138017Y282261D01*
X140207Y287547D01*
X144253Y291593D01*
X149539Y293783D01*
X155261Y293783D01*
X160547Y291593D01*
X164593Y287547D01*
X166783Y282261D01*
X166783Y276539D01*
X164593Y271253D01*
X160547Y267207D01*
X155261Y265017D01*
X149539Y265017D01*
G37*
%LPD*%
%LPC*%
G36*
X505139Y265017D02*
X505139Y265017D01*
X499853Y267207D01*
X495807Y271253D01*
X493617Y276539D01*
X493617Y282261D01*
X495807Y287547D01*
X499853Y291593D01*
X505139Y293783D01*
X510861Y293783D01*
X516147Y291593D01*
X520193Y287547D01*
X522383Y282261D01*
X522383Y276539D01*
X520193Y271253D01*
X516147Y267207D01*
X510861Y265017D01*
X505139Y265017D01*
G37*
%LPD*%
%LPC*%
G36*
X505139Y442817D02*
X505139Y442817D01*
X499853Y445007D01*
X495807Y449053D01*
X493617Y454339D01*
X493617Y460061D01*
X495807Y465347D01*
X499853Y469393D01*
X505139Y471583D01*
X510861Y471583D01*
X516147Y469393D01*
X520193Y465347D01*
X522383Y460061D01*
X522383Y454339D01*
X520193Y449053D01*
X516147Y445007D01*
X510861Y442817D01*
X505139Y442817D01*
G37*
%LPD*%
%LPC*%
G36*
X860739Y442817D02*
X860739Y442817D01*
X855453Y445007D01*
X851407Y449053D01*
X849217Y454339D01*
X849217Y460061D01*
X851407Y465347D01*
X855453Y469393D01*
X860739Y471583D01*
X866461Y471583D01*
X871747Y469393D01*
X875793Y465347D01*
X877983Y460061D01*
X877983Y454339D01*
X875793Y449053D01*
X871747Y445007D01*
X866461Y442817D01*
X860739Y442817D01*
G37*
%LPD*%
%LPC*%
G36*
X1368771Y379475D02*
X1368771Y379475D01*
X1363542Y381641D01*
X1359541Y385642D01*
X1357375Y390871D01*
X1357375Y396529D01*
X1359541Y401758D01*
X1363542Y405759D01*
X1368771Y407925D01*
X1374429Y407925D01*
X1379658Y405759D01*
X1383659Y401758D01*
X1385825Y396529D01*
X1385825Y390871D01*
X1383659Y385642D01*
X1379658Y381641D01*
X1374429Y379475D01*
X1368771Y379475D01*
G37*
%LPD*%
%LPC*%
G36*
X835371Y315975D02*
X835371Y315975D01*
X830142Y318141D01*
X826141Y322142D01*
X823975Y327371D01*
X823975Y333029D01*
X826141Y338258D01*
X830142Y342259D01*
X835371Y344425D01*
X841029Y344425D01*
X846258Y342259D01*
X850259Y338258D01*
X852425Y333029D01*
X852425Y327371D01*
X850259Y322142D01*
X846258Y318141D01*
X841029Y315975D01*
X835371Y315975D01*
G37*
%LPD*%
%LPC*%
G36*
X1190971Y315975D02*
X1190971Y315975D01*
X1185742Y318141D01*
X1181741Y322142D01*
X1179575Y327371D01*
X1179575Y333029D01*
X1181741Y338258D01*
X1185742Y342259D01*
X1190971Y344425D01*
X1196629Y344425D01*
X1201858Y342259D01*
X1205859Y338258D01*
X1208025Y333029D01*
X1208025Y327371D01*
X1205859Y322142D01*
X1201858Y318141D01*
X1196629Y315975D01*
X1190971Y315975D01*
G37*
%LPD*%
%LPC*%
G36*
X1013171Y315975D02*
X1013171Y315975D01*
X1007942Y318141D01*
X1003941Y322142D01*
X1001775Y327371D01*
X1001775Y333029D01*
X1003941Y338258D01*
X1007942Y342259D01*
X1013171Y344425D01*
X1018829Y344425D01*
X1024058Y342259D01*
X1028059Y338258D01*
X1030225Y333029D01*
X1030225Y327371D01*
X1028059Y322142D01*
X1024058Y318141D01*
X1018829Y315975D01*
X1013171Y315975D01*
G37*
%LPD*%
%LPC*%
G36*
X479771Y315975D02*
X479771Y315975D01*
X474542Y318141D01*
X470541Y322142D01*
X468375Y327371D01*
X468375Y333029D01*
X470541Y338258D01*
X474542Y342259D01*
X479771Y344425D01*
X485429Y344425D01*
X490658Y342259D01*
X494659Y338258D01*
X496825Y333029D01*
X496825Y327371D01*
X494659Y322142D01*
X490658Y318141D01*
X485429Y315975D01*
X479771Y315975D01*
G37*
%LPD*%
%LPC*%
G36*
X835371Y138175D02*
X835371Y138175D01*
X830142Y140341D01*
X826141Y144342D01*
X823975Y149571D01*
X823975Y155229D01*
X826141Y160458D01*
X830142Y164459D01*
X835371Y166625D01*
X841029Y166625D01*
X846258Y164459D01*
X850259Y160458D01*
X852425Y155229D01*
X852425Y149571D01*
X850259Y144342D01*
X846258Y140341D01*
X841029Y138175D01*
X835371Y138175D01*
G37*
%LPD*%
%LPC*%
G36*
X479771Y138175D02*
X479771Y138175D01*
X474542Y140341D01*
X470541Y144342D01*
X468375Y149571D01*
X468375Y155229D01*
X470541Y160458D01*
X474542Y164459D01*
X479771Y166625D01*
X485429Y166625D01*
X490658Y164459D01*
X494659Y160458D01*
X496825Y155229D01*
X496825Y149571D01*
X494659Y144342D01*
X490658Y140341D01*
X485429Y138175D01*
X479771Y138175D01*
G37*
%LPD*%
%LPC*%
G36*
X479771Y493775D02*
X479771Y493775D01*
X474542Y495941D01*
X470541Y499942D01*
X468375Y505171D01*
X468375Y510829D01*
X470541Y516058D01*
X474542Y520059D01*
X479771Y522225D01*
X485429Y522225D01*
X490658Y520059D01*
X494659Y516058D01*
X496825Y510829D01*
X496825Y505171D01*
X494659Y499942D01*
X490658Y495941D01*
X485429Y493775D01*
X479771Y493775D01*
G37*
%LPD*%
%LPC*%
G36*
X835371Y493775D02*
X835371Y493775D01*
X830142Y495941D01*
X826141Y499942D01*
X823975Y505171D01*
X823975Y510829D01*
X826141Y516058D01*
X830142Y520059D01*
X835371Y522225D01*
X841029Y522225D01*
X846258Y520059D01*
X850259Y516058D01*
X852425Y510829D01*
X852425Y505171D01*
X850259Y499942D01*
X846258Y495941D01*
X841029Y493775D01*
X835371Y493775D01*
G37*
%LPD*%
%LPC*%
G36*
X301971Y315975D02*
X301971Y315975D01*
X296742Y318141D01*
X292741Y322142D01*
X290575Y327371D01*
X290575Y333029D01*
X292741Y338258D01*
X296742Y342259D01*
X301971Y344425D01*
X307629Y344425D01*
X312858Y342259D01*
X316859Y338258D01*
X319025Y333029D01*
X319025Y327371D01*
X316859Y322142D01*
X312858Y318141D01*
X307629Y315975D01*
X301971Y315975D01*
G37*
%LPD*%
%LPC*%
G36*
X124171Y315975D02*
X124171Y315975D01*
X118942Y318141D01*
X114941Y322142D01*
X112775Y327371D01*
X112775Y333029D01*
X114941Y338258D01*
X118942Y342259D01*
X124171Y344425D01*
X129829Y344425D01*
X135058Y342259D01*
X139059Y338258D01*
X141225Y333029D01*
X141225Y327371D01*
X139059Y322142D01*
X135058Y318141D01*
X129829Y315975D01*
X124171Y315975D01*
G37*
%LPD*%
D10*
X419100Y482600D03*
X482600Y508000D03*
D11*
X406400Y457200D03*
X508000Y457200D03*
D10*
X774700Y482600D03*
X838200Y508000D03*
D11*
X762000Y457200D03*
X863600Y457200D03*
D10*
X63500Y304800D03*
X127000Y330200D03*
D11*
X50800Y279400D03*
X152400Y279400D03*
D10*
X241300Y304800D03*
X304800Y330200D03*
D11*
X228600Y279400D03*
X330200Y279400D03*
D10*
X419100Y304800D03*
X482600Y330200D03*
D11*
X406400Y279400D03*
X508000Y279400D03*
D10*
X774700Y304800D03*
X838200Y330200D03*
D11*
X762000Y279400D03*
X863600Y279400D03*
D10*
X952500Y304800D03*
X1016000Y330200D03*
D11*
X939800Y279400D03*
X1041400Y279400D03*
D10*
X1130300Y304800D03*
X1193800Y330200D03*
D11*
X1117600Y279400D03*
X1219200Y279400D03*
D10*
X1308100Y368300D03*
X1371600Y393700D03*
D11*
X1295400Y342900D03*
X1397000Y342900D03*
D10*
X419100Y127000D03*
X482600Y152400D03*
D11*
X406400Y101600D03*
X508000Y101600D03*
D10*
X774700Y127000D03*
X838200Y152400D03*
D11*
X762000Y101600D03*
X863600Y101600D03*
D12*
X1447800Y508000D03*
X1447800Y685800D03*
D13*
X1308100Y495300D03*
X1282700Y495300D03*
X1257300Y495300D03*
X1231900Y495300D03*
X1206500Y495300D03*
X1181100Y495300D03*
X1155700Y495300D03*
X1130300Y495300D03*
X1104900Y495300D03*
X1079500Y495300D03*
X1054100Y495300D03*
X1028700Y495300D03*
X1308100Y698500D03*
X1282700Y698500D03*
X1257300Y698500D03*
X1231900Y698500D03*
X1206500Y698500D03*
X1181100Y698500D03*
X1155700Y698500D03*
X1130300Y698500D03*
X1104900Y698500D03*
X1079500Y698500D03*
X1054100Y698500D03*
X1028700Y698500D03*
X1333500Y698500D03*
X1358900Y698500D03*
X1384300Y698500D03*
X1409700Y698500D03*
D14*
X128016Y330708D02*
X127000Y330200D01*
X304800Y330708D02*
X304800Y330200D01*
X768096Y489204D02*
X774700Y482600D01*
X419100Y483108D02*
X419100Y482600D01*
X769620Y132588D02*
X774192Y128016D01*
X419100Y128016D02*
X419100Y127000D01*
X774192Y128016D02*
X774700Y127000D01*
M02*
