G04 EAGLE Gerber RS-274X export*
G75*
%MOMM*%
%FSLAX34Y34*%
%LPD*%
%IN*%
%IPPOS*%
%AMOC8*
5,1,8,0,0,1.08239X$1,22.5*%
G01*
%ADD10C,0.254000*%


D10*
X965200Y508000D02*
X965297Y505786D01*
X965586Y503589D01*
X966065Y501426D01*
X966732Y499313D01*
X967580Y497266D01*
X968603Y495300D01*
X969794Y493431D01*
X971142Y491673D01*
X972640Y490040D01*
X974273Y488542D01*
X976031Y487194D01*
X977900Y486003D01*
X979866Y484980D01*
X981913Y484132D01*
X984026Y483465D01*
X986189Y482986D01*
X988386Y482697D01*
X990600Y482600D01*
X1447800Y482600D01*
X1450014Y482697D01*
X1452211Y482986D01*
X1454374Y483465D01*
X1456487Y484132D01*
X1458535Y484980D01*
X1460500Y486003D01*
X1462369Y487194D01*
X1464127Y488542D01*
X1465761Y490040D01*
X1467258Y491673D01*
X1468606Y493431D01*
X1469797Y495300D01*
X1470820Y497266D01*
X1471668Y499313D01*
X1472335Y501426D01*
X1472814Y503589D01*
X1473103Y505786D01*
X1473200Y508000D01*
X1473200Y685800D01*
X1473103Y688014D01*
X1472814Y690211D01*
X1472335Y692374D01*
X1471668Y694487D01*
X1470820Y696535D01*
X1469797Y698500D01*
X1468606Y700369D01*
X1467258Y702127D01*
X1465761Y703761D01*
X1464127Y705258D01*
X1462369Y706606D01*
X1460500Y707797D01*
X1458535Y708820D01*
X1456487Y709668D01*
X1454374Y710335D01*
X1452211Y710814D01*
X1450014Y711103D01*
X1447800Y711200D01*
X990600Y711200D01*
X988386Y711103D01*
X986189Y710814D01*
X984026Y710335D01*
X981913Y709668D01*
X979866Y708820D01*
X977900Y707797D01*
X976031Y706606D01*
X974273Y705258D01*
X972640Y703761D01*
X971142Y702127D01*
X969794Y700369D01*
X968603Y698500D01*
X967580Y696535D01*
X966732Y694487D01*
X966065Y692374D01*
X965586Y690211D01*
X965297Y688014D01*
X965200Y685800D01*
X965200Y508000D01*
X477202Y456596D02*
X477129Y455389D01*
X476983Y454189D01*
X476765Y453000D01*
X476476Y451826D01*
X476117Y450672D01*
X475688Y449542D01*
X475192Y448440D01*
X474630Y447369D01*
X474005Y446335D01*
X473318Y445340D01*
X472573Y444389D01*
X471771Y443484D01*
X470916Y442629D01*
X470011Y441828D01*
X469060Y441082D01*
X468065Y440395D01*
X467031Y439770D01*
X465960Y439208D01*
X464858Y438712D01*
X463728Y438283D01*
X462574Y437924D01*
X461400Y437635D01*
X460211Y437417D01*
X459011Y437271D01*
X457804Y437198D01*
X456596Y437198D01*
X455389Y437271D01*
X454189Y437417D01*
X453000Y437635D01*
X451826Y437924D01*
X450672Y438283D01*
X449542Y438712D01*
X448440Y439208D01*
X447369Y439770D01*
X446335Y440395D01*
X445340Y441082D01*
X444389Y441828D01*
X443484Y442629D01*
X442629Y443484D01*
X441828Y444389D01*
X441082Y445340D01*
X440395Y446335D01*
X439770Y447369D01*
X439208Y448440D01*
X438712Y449542D01*
X438283Y450672D01*
X437924Y451826D01*
X437635Y453000D01*
X437417Y454189D01*
X437271Y455389D01*
X437198Y456596D01*
X437198Y457804D01*
X437271Y459011D01*
X437417Y460211D01*
X437635Y461400D01*
X437924Y462574D01*
X438283Y463728D01*
X438712Y464858D01*
X439208Y465960D01*
X439770Y467031D01*
X440395Y468065D01*
X441082Y469060D01*
X441828Y470011D01*
X442629Y470916D01*
X443484Y471771D01*
X444389Y472573D01*
X445340Y473318D01*
X446335Y474005D01*
X447369Y474630D01*
X448440Y475192D01*
X449542Y475688D01*
X450672Y476117D01*
X451826Y476476D01*
X453000Y476765D01*
X454189Y476983D01*
X455389Y477129D01*
X456596Y477202D01*
X457804Y477202D01*
X459011Y477129D01*
X460211Y476983D01*
X461400Y476765D01*
X462574Y476476D01*
X463728Y476117D01*
X464858Y475688D01*
X465960Y475192D01*
X467031Y474630D01*
X468065Y474005D01*
X469060Y473318D01*
X470011Y472573D01*
X470916Y471771D01*
X471771Y470916D01*
X472573Y470011D01*
X473318Y469060D01*
X474005Y468065D01*
X474630Y467031D01*
X475192Y465960D01*
X475688Y464858D01*
X476117Y463728D01*
X476476Y462574D01*
X476765Y461400D01*
X476983Y460211D01*
X477129Y459011D01*
X477202Y457804D01*
X477202Y456596D01*
X832802Y456596D02*
X832729Y455389D01*
X832583Y454189D01*
X832365Y453000D01*
X832076Y451826D01*
X831717Y450672D01*
X831288Y449542D01*
X830792Y448440D01*
X830230Y447369D01*
X829605Y446335D01*
X828918Y445340D01*
X828173Y444389D01*
X827371Y443484D01*
X826516Y442629D01*
X825611Y441828D01*
X824660Y441082D01*
X823665Y440395D01*
X822631Y439770D01*
X821560Y439208D01*
X820458Y438712D01*
X819328Y438283D01*
X818174Y437924D01*
X817000Y437635D01*
X815811Y437417D01*
X814611Y437271D01*
X813404Y437198D01*
X812196Y437198D01*
X810989Y437271D01*
X809789Y437417D01*
X808600Y437635D01*
X807426Y437924D01*
X806272Y438283D01*
X805142Y438712D01*
X804040Y439208D01*
X802969Y439770D01*
X801935Y440395D01*
X800940Y441082D01*
X799989Y441828D01*
X799084Y442629D01*
X798229Y443484D01*
X797428Y444389D01*
X796682Y445340D01*
X795995Y446335D01*
X795370Y447369D01*
X794808Y448440D01*
X794312Y449542D01*
X793883Y450672D01*
X793524Y451826D01*
X793235Y453000D01*
X793017Y454189D01*
X792871Y455389D01*
X792798Y456596D01*
X792798Y457804D01*
X792871Y459011D01*
X793017Y460211D01*
X793235Y461400D01*
X793524Y462574D01*
X793883Y463728D01*
X794312Y464858D01*
X794808Y465960D01*
X795370Y467031D01*
X795995Y468065D01*
X796682Y469060D01*
X797428Y470011D01*
X798229Y470916D01*
X799084Y471771D01*
X799989Y472573D01*
X800940Y473318D01*
X801935Y474005D01*
X802969Y474630D01*
X804040Y475192D01*
X805142Y475688D01*
X806272Y476117D01*
X807426Y476476D01*
X808600Y476765D01*
X809789Y476983D01*
X810989Y477129D01*
X812196Y477202D01*
X813404Y477202D01*
X814611Y477129D01*
X815811Y476983D01*
X817000Y476765D01*
X818174Y476476D01*
X819328Y476117D01*
X820458Y475688D01*
X821560Y475192D01*
X822631Y474630D01*
X823665Y474005D01*
X824660Y473318D01*
X825611Y472573D01*
X826516Y471771D01*
X827371Y470916D01*
X828173Y470011D01*
X828918Y469060D01*
X829605Y468065D01*
X830230Y467031D01*
X830792Y465960D01*
X831288Y464858D01*
X831717Y463728D01*
X832076Y462574D01*
X832365Y461400D01*
X832583Y460211D01*
X832729Y459011D01*
X832802Y457804D01*
X832802Y456596D01*
X121602Y278796D02*
X121529Y277589D01*
X121383Y276389D01*
X121165Y275200D01*
X120876Y274026D01*
X120517Y272872D01*
X120088Y271742D01*
X119592Y270640D01*
X119030Y269569D01*
X118405Y268535D01*
X117718Y267540D01*
X116973Y266589D01*
X116171Y265684D01*
X115316Y264829D01*
X114411Y264028D01*
X113460Y263282D01*
X112465Y262595D01*
X111431Y261970D01*
X110360Y261408D01*
X109258Y260912D01*
X108128Y260483D01*
X106974Y260124D01*
X105800Y259835D01*
X104611Y259617D01*
X103411Y259471D01*
X102204Y259398D01*
X100996Y259398D01*
X99789Y259471D01*
X98589Y259617D01*
X97400Y259835D01*
X96226Y260124D01*
X95072Y260483D01*
X93942Y260912D01*
X92840Y261408D01*
X91769Y261970D01*
X90735Y262595D01*
X89740Y263282D01*
X88789Y264028D01*
X87884Y264829D01*
X87029Y265684D01*
X86228Y266589D01*
X85482Y267540D01*
X84795Y268535D01*
X84170Y269569D01*
X83608Y270640D01*
X83112Y271742D01*
X82683Y272872D01*
X82324Y274026D01*
X82035Y275200D01*
X81817Y276389D01*
X81671Y277589D01*
X81598Y278796D01*
X81598Y280004D01*
X81671Y281211D01*
X81817Y282411D01*
X82035Y283600D01*
X82324Y284774D01*
X82683Y285928D01*
X83112Y287058D01*
X83608Y288160D01*
X84170Y289231D01*
X84795Y290265D01*
X85482Y291260D01*
X86228Y292211D01*
X87029Y293116D01*
X87884Y293971D01*
X88789Y294773D01*
X89740Y295518D01*
X90735Y296205D01*
X91769Y296830D01*
X92840Y297392D01*
X93942Y297888D01*
X95072Y298317D01*
X96226Y298676D01*
X97400Y298965D01*
X98589Y299183D01*
X99789Y299329D01*
X100996Y299402D01*
X102204Y299402D01*
X103411Y299329D01*
X104611Y299183D01*
X105800Y298965D01*
X106974Y298676D01*
X108128Y298317D01*
X109258Y297888D01*
X110360Y297392D01*
X111431Y296830D01*
X112465Y296205D01*
X113460Y295518D01*
X114411Y294773D01*
X115316Y293971D01*
X116171Y293116D01*
X116973Y292211D01*
X117718Y291260D01*
X118405Y290265D01*
X119030Y289231D01*
X119592Y288160D01*
X120088Y287058D01*
X120517Y285928D01*
X120876Y284774D01*
X121165Y283600D01*
X121383Y282411D01*
X121529Y281211D01*
X121602Y280004D01*
X121602Y278796D01*
X299402Y278796D02*
X299329Y277589D01*
X299183Y276389D01*
X298965Y275200D01*
X298676Y274026D01*
X298317Y272872D01*
X297888Y271742D01*
X297392Y270640D01*
X296830Y269569D01*
X296205Y268535D01*
X295518Y267540D01*
X294773Y266589D01*
X293971Y265684D01*
X293116Y264829D01*
X292211Y264028D01*
X291260Y263282D01*
X290265Y262595D01*
X289231Y261970D01*
X288160Y261408D01*
X287058Y260912D01*
X285928Y260483D01*
X284774Y260124D01*
X283600Y259835D01*
X282411Y259617D01*
X281211Y259471D01*
X280004Y259398D01*
X278796Y259398D01*
X277589Y259471D01*
X276389Y259617D01*
X275200Y259835D01*
X274026Y260124D01*
X272872Y260483D01*
X271742Y260912D01*
X270640Y261408D01*
X269569Y261970D01*
X268535Y262595D01*
X267540Y263282D01*
X266589Y264028D01*
X265684Y264829D01*
X264829Y265684D01*
X264028Y266589D01*
X263282Y267540D01*
X262595Y268535D01*
X261970Y269569D01*
X261408Y270640D01*
X260912Y271742D01*
X260483Y272872D01*
X260124Y274026D01*
X259835Y275200D01*
X259617Y276389D01*
X259471Y277589D01*
X259398Y278796D01*
X259398Y280004D01*
X259471Y281211D01*
X259617Y282411D01*
X259835Y283600D01*
X260124Y284774D01*
X260483Y285928D01*
X260912Y287058D01*
X261408Y288160D01*
X261970Y289231D01*
X262595Y290265D01*
X263282Y291260D01*
X264028Y292211D01*
X264829Y293116D01*
X265684Y293971D01*
X266589Y294773D01*
X267540Y295518D01*
X268535Y296205D01*
X269569Y296830D01*
X270640Y297392D01*
X271742Y297888D01*
X272872Y298317D01*
X274026Y298676D01*
X275200Y298965D01*
X276389Y299183D01*
X277589Y299329D01*
X278796Y299402D01*
X280004Y299402D01*
X281211Y299329D01*
X282411Y299183D01*
X283600Y298965D01*
X284774Y298676D01*
X285928Y298317D01*
X287058Y297888D01*
X288160Y297392D01*
X289231Y296830D01*
X290265Y296205D01*
X291260Y295518D01*
X292211Y294773D01*
X293116Y293971D01*
X293971Y293116D01*
X294773Y292211D01*
X295518Y291260D01*
X296205Y290265D01*
X296830Y289231D01*
X297392Y288160D01*
X297888Y287058D01*
X298317Y285928D01*
X298676Y284774D01*
X298965Y283600D01*
X299183Y282411D01*
X299329Y281211D01*
X299402Y280004D01*
X299402Y278796D01*
X477202Y278796D02*
X477129Y277589D01*
X476983Y276389D01*
X476765Y275200D01*
X476476Y274026D01*
X476117Y272872D01*
X475688Y271742D01*
X475192Y270640D01*
X474630Y269569D01*
X474005Y268535D01*
X473318Y267540D01*
X472573Y266589D01*
X471771Y265684D01*
X470916Y264829D01*
X470011Y264028D01*
X469060Y263282D01*
X468065Y262595D01*
X467031Y261970D01*
X465960Y261408D01*
X464858Y260912D01*
X463728Y260483D01*
X462574Y260124D01*
X461400Y259835D01*
X460211Y259617D01*
X459011Y259471D01*
X457804Y259398D01*
X456596Y259398D01*
X455389Y259471D01*
X454189Y259617D01*
X453000Y259835D01*
X451826Y260124D01*
X450672Y260483D01*
X449542Y260912D01*
X448440Y261408D01*
X447369Y261970D01*
X446335Y262595D01*
X445340Y263282D01*
X444389Y264028D01*
X443484Y264829D01*
X442629Y265684D01*
X441828Y266589D01*
X441082Y267540D01*
X440395Y268535D01*
X439770Y269569D01*
X439208Y270640D01*
X438712Y271742D01*
X438283Y272872D01*
X437924Y274026D01*
X437635Y275200D01*
X437417Y276389D01*
X437271Y277589D01*
X437198Y278796D01*
X437198Y280004D01*
X437271Y281211D01*
X437417Y282411D01*
X437635Y283600D01*
X437924Y284774D01*
X438283Y285928D01*
X438712Y287058D01*
X439208Y288160D01*
X439770Y289231D01*
X440395Y290265D01*
X441082Y291260D01*
X441828Y292211D01*
X442629Y293116D01*
X443484Y293971D01*
X444389Y294773D01*
X445340Y295518D01*
X446335Y296205D01*
X447369Y296830D01*
X448440Y297392D01*
X449542Y297888D01*
X450672Y298317D01*
X451826Y298676D01*
X453000Y298965D01*
X454189Y299183D01*
X455389Y299329D01*
X456596Y299402D01*
X457804Y299402D01*
X459011Y299329D01*
X460211Y299183D01*
X461400Y298965D01*
X462574Y298676D01*
X463728Y298317D01*
X464858Y297888D01*
X465960Y297392D01*
X467031Y296830D01*
X468065Y296205D01*
X469060Y295518D01*
X470011Y294773D01*
X470916Y293971D01*
X471771Y293116D01*
X472573Y292211D01*
X473318Y291260D01*
X474005Y290265D01*
X474630Y289231D01*
X475192Y288160D01*
X475688Y287058D01*
X476117Y285928D01*
X476476Y284774D01*
X476765Y283600D01*
X476983Y282411D01*
X477129Y281211D01*
X477202Y280004D01*
X477202Y278796D01*
X832802Y278796D02*
X832729Y277589D01*
X832583Y276389D01*
X832365Y275200D01*
X832076Y274026D01*
X831717Y272872D01*
X831288Y271742D01*
X830792Y270640D01*
X830230Y269569D01*
X829605Y268535D01*
X828918Y267540D01*
X828173Y266589D01*
X827371Y265684D01*
X826516Y264829D01*
X825611Y264028D01*
X824660Y263282D01*
X823665Y262595D01*
X822631Y261970D01*
X821560Y261408D01*
X820458Y260912D01*
X819328Y260483D01*
X818174Y260124D01*
X817000Y259835D01*
X815811Y259617D01*
X814611Y259471D01*
X813404Y259398D01*
X812196Y259398D01*
X810989Y259471D01*
X809789Y259617D01*
X808600Y259835D01*
X807426Y260124D01*
X806272Y260483D01*
X805142Y260912D01*
X804040Y261408D01*
X802969Y261970D01*
X801935Y262595D01*
X800940Y263282D01*
X799989Y264028D01*
X799084Y264829D01*
X798229Y265684D01*
X797428Y266589D01*
X796682Y267540D01*
X795995Y268535D01*
X795370Y269569D01*
X794808Y270640D01*
X794312Y271742D01*
X793883Y272872D01*
X793524Y274026D01*
X793235Y275200D01*
X793017Y276389D01*
X792871Y277589D01*
X792798Y278796D01*
X792798Y280004D01*
X792871Y281211D01*
X793017Y282411D01*
X793235Y283600D01*
X793524Y284774D01*
X793883Y285928D01*
X794312Y287058D01*
X794808Y288160D01*
X795370Y289231D01*
X795995Y290265D01*
X796682Y291260D01*
X797428Y292211D01*
X798229Y293116D01*
X799084Y293971D01*
X799989Y294773D01*
X800940Y295518D01*
X801935Y296205D01*
X802969Y296830D01*
X804040Y297392D01*
X805142Y297888D01*
X806272Y298317D01*
X807426Y298676D01*
X808600Y298965D01*
X809789Y299183D01*
X810989Y299329D01*
X812196Y299402D01*
X813404Y299402D01*
X814611Y299329D01*
X815811Y299183D01*
X817000Y298965D01*
X818174Y298676D01*
X819328Y298317D01*
X820458Y297888D01*
X821560Y297392D01*
X822631Y296830D01*
X823665Y296205D01*
X824660Y295518D01*
X825611Y294773D01*
X826516Y293971D01*
X827371Y293116D01*
X828173Y292211D01*
X828918Y291260D01*
X829605Y290265D01*
X830230Y289231D01*
X830792Y288160D01*
X831288Y287058D01*
X831717Y285928D01*
X832076Y284774D01*
X832365Y283600D01*
X832583Y282411D01*
X832729Y281211D01*
X832802Y280004D01*
X832802Y278796D01*
X1010602Y278796D02*
X1010529Y277589D01*
X1010383Y276389D01*
X1010165Y275200D01*
X1009876Y274026D01*
X1009517Y272872D01*
X1009088Y271742D01*
X1008592Y270640D01*
X1008030Y269569D01*
X1007405Y268535D01*
X1006718Y267540D01*
X1005973Y266589D01*
X1005171Y265684D01*
X1004316Y264829D01*
X1003411Y264028D01*
X1002460Y263282D01*
X1001465Y262595D01*
X1000431Y261970D01*
X999360Y261408D01*
X998258Y260912D01*
X997128Y260483D01*
X995974Y260124D01*
X994800Y259835D01*
X993611Y259617D01*
X992411Y259471D01*
X991204Y259398D01*
X989996Y259398D01*
X988789Y259471D01*
X987589Y259617D01*
X986400Y259835D01*
X985226Y260124D01*
X984072Y260483D01*
X982942Y260912D01*
X981840Y261408D01*
X980769Y261970D01*
X979735Y262595D01*
X978740Y263282D01*
X977789Y264028D01*
X976884Y264829D01*
X976029Y265684D01*
X975228Y266589D01*
X974482Y267540D01*
X973795Y268535D01*
X973170Y269569D01*
X972608Y270640D01*
X972112Y271742D01*
X971683Y272872D01*
X971324Y274026D01*
X971035Y275200D01*
X970817Y276389D01*
X970671Y277589D01*
X970598Y278796D01*
X970598Y280004D01*
X970671Y281211D01*
X970817Y282411D01*
X971035Y283600D01*
X971324Y284774D01*
X971683Y285928D01*
X972112Y287058D01*
X972608Y288160D01*
X973170Y289231D01*
X973795Y290265D01*
X974482Y291260D01*
X975228Y292211D01*
X976029Y293116D01*
X976884Y293971D01*
X977789Y294773D01*
X978740Y295518D01*
X979735Y296205D01*
X980769Y296830D01*
X981840Y297392D01*
X982942Y297888D01*
X984072Y298317D01*
X985226Y298676D01*
X986400Y298965D01*
X987589Y299183D01*
X988789Y299329D01*
X989996Y299402D01*
X991204Y299402D01*
X992411Y299329D01*
X993611Y299183D01*
X994800Y298965D01*
X995974Y298676D01*
X997128Y298317D01*
X998258Y297888D01*
X999360Y297392D01*
X1000431Y296830D01*
X1001465Y296205D01*
X1002460Y295518D01*
X1003411Y294773D01*
X1004316Y293971D01*
X1005171Y293116D01*
X1005973Y292211D01*
X1006718Y291260D01*
X1007405Y290265D01*
X1008030Y289231D01*
X1008592Y288160D01*
X1009088Y287058D01*
X1009517Y285928D01*
X1009876Y284774D01*
X1010165Y283600D01*
X1010383Y282411D01*
X1010529Y281211D01*
X1010602Y280004D01*
X1010602Y278796D01*
X1188402Y278796D02*
X1188329Y277589D01*
X1188183Y276389D01*
X1187965Y275200D01*
X1187676Y274026D01*
X1187317Y272872D01*
X1186888Y271742D01*
X1186392Y270640D01*
X1185830Y269569D01*
X1185205Y268535D01*
X1184518Y267540D01*
X1183773Y266589D01*
X1182971Y265684D01*
X1182116Y264829D01*
X1181211Y264028D01*
X1180260Y263282D01*
X1179265Y262595D01*
X1178231Y261970D01*
X1177160Y261408D01*
X1176058Y260912D01*
X1174928Y260483D01*
X1173774Y260124D01*
X1172600Y259835D01*
X1171411Y259617D01*
X1170211Y259471D01*
X1169004Y259398D01*
X1167796Y259398D01*
X1166589Y259471D01*
X1165389Y259617D01*
X1164200Y259835D01*
X1163026Y260124D01*
X1161872Y260483D01*
X1160742Y260912D01*
X1159640Y261408D01*
X1158569Y261970D01*
X1157535Y262595D01*
X1156540Y263282D01*
X1155589Y264028D01*
X1154684Y264829D01*
X1153829Y265684D01*
X1153028Y266589D01*
X1152282Y267540D01*
X1151595Y268535D01*
X1150970Y269569D01*
X1150408Y270640D01*
X1149912Y271742D01*
X1149483Y272872D01*
X1149124Y274026D01*
X1148835Y275200D01*
X1148617Y276389D01*
X1148471Y277589D01*
X1148398Y278796D01*
X1148398Y280004D01*
X1148471Y281211D01*
X1148617Y282411D01*
X1148835Y283600D01*
X1149124Y284774D01*
X1149483Y285928D01*
X1149912Y287058D01*
X1150408Y288160D01*
X1150970Y289231D01*
X1151595Y290265D01*
X1152282Y291260D01*
X1153028Y292211D01*
X1153829Y293116D01*
X1154684Y293971D01*
X1155589Y294773D01*
X1156540Y295518D01*
X1157535Y296205D01*
X1158569Y296830D01*
X1159640Y297392D01*
X1160742Y297888D01*
X1161872Y298317D01*
X1163026Y298676D01*
X1164200Y298965D01*
X1165389Y299183D01*
X1166589Y299329D01*
X1167796Y299402D01*
X1169004Y299402D01*
X1170211Y299329D01*
X1171411Y299183D01*
X1172600Y298965D01*
X1173774Y298676D01*
X1174928Y298317D01*
X1176058Y297888D01*
X1177160Y297392D01*
X1178231Y296830D01*
X1179265Y296205D01*
X1180260Y295518D01*
X1181211Y294773D01*
X1182116Y293971D01*
X1182971Y293116D01*
X1183773Y292211D01*
X1184518Y291260D01*
X1185205Y290265D01*
X1185830Y289231D01*
X1186392Y288160D01*
X1186888Y287058D01*
X1187317Y285928D01*
X1187676Y284774D01*
X1187965Y283600D01*
X1188183Y282411D01*
X1188329Y281211D01*
X1188402Y280004D01*
X1188402Y278796D01*
X1366202Y342296D02*
X1366129Y341089D01*
X1365983Y339889D01*
X1365765Y338700D01*
X1365476Y337526D01*
X1365117Y336372D01*
X1364688Y335242D01*
X1364192Y334140D01*
X1363630Y333069D01*
X1363005Y332035D01*
X1362318Y331040D01*
X1361573Y330089D01*
X1360771Y329184D01*
X1359916Y328329D01*
X1359011Y327528D01*
X1358060Y326782D01*
X1357065Y326095D01*
X1356031Y325470D01*
X1354960Y324908D01*
X1353858Y324412D01*
X1352728Y323983D01*
X1351574Y323624D01*
X1350400Y323335D01*
X1349211Y323117D01*
X1348011Y322971D01*
X1346804Y322898D01*
X1345596Y322898D01*
X1344389Y322971D01*
X1343189Y323117D01*
X1342000Y323335D01*
X1340826Y323624D01*
X1339672Y323983D01*
X1338542Y324412D01*
X1337440Y324908D01*
X1336369Y325470D01*
X1335335Y326095D01*
X1334340Y326782D01*
X1333389Y327528D01*
X1332484Y328329D01*
X1331629Y329184D01*
X1330828Y330089D01*
X1330082Y331040D01*
X1329395Y332035D01*
X1328770Y333069D01*
X1328208Y334140D01*
X1327712Y335242D01*
X1327283Y336372D01*
X1326924Y337526D01*
X1326635Y338700D01*
X1326417Y339889D01*
X1326271Y341089D01*
X1326198Y342296D01*
X1326198Y343504D01*
X1326271Y344711D01*
X1326417Y345911D01*
X1326635Y347100D01*
X1326924Y348274D01*
X1327283Y349428D01*
X1327712Y350558D01*
X1328208Y351660D01*
X1328770Y352731D01*
X1329395Y353765D01*
X1330082Y354760D01*
X1330828Y355711D01*
X1331629Y356616D01*
X1332484Y357471D01*
X1333389Y358273D01*
X1334340Y359018D01*
X1335335Y359705D01*
X1336369Y360330D01*
X1337440Y360892D01*
X1338542Y361388D01*
X1339672Y361817D01*
X1340826Y362176D01*
X1342000Y362465D01*
X1343189Y362683D01*
X1344389Y362829D01*
X1345596Y362902D01*
X1346804Y362902D01*
X1348011Y362829D01*
X1349211Y362683D01*
X1350400Y362465D01*
X1351574Y362176D01*
X1352728Y361817D01*
X1353858Y361388D01*
X1354960Y360892D01*
X1356031Y360330D01*
X1357065Y359705D01*
X1358060Y359018D01*
X1359011Y358273D01*
X1359916Y357471D01*
X1360771Y356616D01*
X1361573Y355711D01*
X1362318Y354760D01*
X1363005Y353765D01*
X1363630Y352731D01*
X1364192Y351660D01*
X1364688Y350558D01*
X1365117Y349428D01*
X1365476Y348274D01*
X1365765Y347100D01*
X1365983Y345911D01*
X1366129Y344711D01*
X1366202Y343504D01*
X1366202Y342296D01*
X477202Y100996D02*
X477129Y99789D01*
X476983Y98589D01*
X476765Y97400D01*
X476476Y96226D01*
X476117Y95072D01*
X475688Y93942D01*
X475192Y92840D01*
X474630Y91769D01*
X474005Y90735D01*
X473318Y89740D01*
X472573Y88789D01*
X471771Y87884D01*
X470916Y87029D01*
X470011Y86228D01*
X469060Y85482D01*
X468065Y84795D01*
X467031Y84170D01*
X465960Y83608D01*
X464858Y83112D01*
X463728Y82683D01*
X462574Y82324D01*
X461400Y82035D01*
X460211Y81817D01*
X459011Y81671D01*
X457804Y81598D01*
X456596Y81598D01*
X455389Y81671D01*
X454189Y81817D01*
X453000Y82035D01*
X451826Y82324D01*
X450672Y82683D01*
X449542Y83112D01*
X448440Y83608D01*
X447369Y84170D01*
X446335Y84795D01*
X445340Y85482D01*
X444389Y86228D01*
X443484Y87029D01*
X442629Y87884D01*
X441828Y88789D01*
X441082Y89740D01*
X440395Y90735D01*
X439770Y91769D01*
X439208Y92840D01*
X438712Y93942D01*
X438283Y95072D01*
X437924Y96226D01*
X437635Y97400D01*
X437417Y98589D01*
X437271Y99789D01*
X437198Y100996D01*
X437198Y102204D01*
X437271Y103411D01*
X437417Y104611D01*
X437635Y105800D01*
X437924Y106974D01*
X438283Y108128D01*
X438712Y109258D01*
X439208Y110360D01*
X439770Y111431D01*
X440395Y112465D01*
X441082Y113460D01*
X441828Y114411D01*
X442629Y115316D01*
X443484Y116171D01*
X444389Y116973D01*
X445340Y117718D01*
X446335Y118405D01*
X447369Y119030D01*
X448440Y119592D01*
X449542Y120088D01*
X450672Y120517D01*
X451826Y120876D01*
X453000Y121165D01*
X454189Y121383D01*
X455389Y121529D01*
X456596Y121602D01*
X457804Y121602D01*
X459011Y121529D01*
X460211Y121383D01*
X461400Y121165D01*
X462574Y120876D01*
X463728Y120517D01*
X464858Y120088D01*
X465960Y119592D01*
X467031Y119030D01*
X468065Y118405D01*
X469060Y117718D01*
X470011Y116973D01*
X470916Y116171D01*
X471771Y115316D01*
X472573Y114411D01*
X473318Y113460D01*
X474005Y112465D01*
X474630Y111431D01*
X475192Y110360D01*
X475688Y109258D01*
X476117Y108128D01*
X476476Y106974D01*
X476765Y105800D01*
X476983Y104611D01*
X477129Y103411D01*
X477202Y102204D01*
X477202Y100996D01*
X832802Y100996D02*
X832729Y99789D01*
X832583Y98589D01*
X832365Y97400D01*
X832076Y96226D01*
X831717Y95072D01*
X831288Y93942D01*
X830792Y92840D01*
X830230Y91769D01*
X829605Y90735D01*
X828918Y89740D01*
X828173Y88789D01*
X827371Y87884D01*
X826516Y87029D01*
X825611Y86228D01*
X824660Y85482D01*
X823665Y84795D01*
X822631Y84170D01*
X821560Y83608D01*
X820458Y83112D01*
X819328Y82683D01*
X818174Y82324D01*
X817000Y82035D01*
X815811Y81817D01*
X814611Y81671D01*
X813404Y81598D01*
X812196Y81598D01*
X810989Y81671D01*
X809789Y81817D01*
X808600Y82035D01*
X807426Y82324D01*
X806272Y82683D01*
X805142Y83112D01*
X804040Y83608D01*
X802969Y84170D01*
X801935Y84795D01*
X800940Y85482D01*
X799989Y86228D01*
X799084Y87029D01*
X798229Y87884D01*
X797428Y88789D01*
X796682Y89740D01*
X795995Y90735D01*
X795370Y91769D01*
X794808Y92840D01*
X794312Y93942D01*
X793883Y95072D01*
X793524Y96226D01*
X793235Y97400D01*
X793017Y98589D01*
X792871Y99789D01*
X792798Y100996D01*
X792798Y102204D01*
X792871Y103411D01*
X793017Y104611D01*
X793235Y105800D01*
X793524Y106974D01*
X793883Y108128D01*
X794312Y109258D01*
X794808Y110360D01*
X795370Y111431D01*
X795995Y112465D01*
X796682Y113460D01*
X797428Y114411D01*
X798229Y115316D01*
X799084Y116171D01*
X799989Y116973D01*
X800940Y117718D01*
X801935Y118405D01*
X802969Y119030D01*
X804040Y119592D01*
X805142Y120088D01*
X806272Y120517D01*
X807426Y120876D01*
X808600Y121165D01*
X809789Y121383D01*
X810989Y121529D01*
X812196Y121602D01*
X813404Y121602D01*
X814611Y121529D01*
X815811Y121383D01*
X817000Y121165D01*
X818174Y120876D01*
X819328Y120517D01*
X820458Y120088D01*
X821560Y119592D01*
X822631Y119030D01*
X823665Y118405D01*
X824660Y117718D01*
X825611Y116973D01*
X826516Y116171D01*
X827371Y115316D01*
X828173Y114411D01*
X828918Y113460D01*
X829605Y112465D01*
X830230Y111431D01*
X830792Y110360D01*
X831288Y109258D01*
X831717Y108128D01*
X832076Y106974D01*
X832365Y105800D01*
X832583Y104611D01*
X832729Y103411D01*
X832802Y102204D01*
X832802Y100996D01*
X977900Y508499D02*
X977978Y509494D01*
X978134Y510480D01*
X978367Y511450D01*
X978676Y512399D01*
X979058Y513321D01*
X979511Y514210D01*
X980032Y515061D01*
X980619Y515869D01*
X981267Y516627D01*
X981973Y517333D01*
X982731Y517981D01*
X983539Y518568D01*
X984390Y519089D01*
X985279Y519542D01*
X986201Y519924D01*
X987150Y520233D01*
X988120Y520466D01*
X989106Y520622D01*
X990101Y520700D01*
X991099Y520700D01*
X992094Y520622D01*
X993080Y520466D01*
X994050Y520233D01*
X994999Y519924D01*
X995921Y519542D01*
X996810Y519089D01*
X997661Y518568D01*
X998469Y517981D01*
X999227Y517333D01*
X999933Y516627D01*
X1000581Y515869D01*
X1001168Y515061D01*
X1001689Y514210D01*
X1002142Y513321D01*
X1002524Y512399D01*
X1002833Y511450D01*
X1003066Y510480D01*
X1003222Y509494D01*
X1003300Y508499D01*
X1003300Y507501D01*
X1003222Y506506D01*
X1003066Y505520D01*
X1002833Y504550D01*
X1002524Y503601D01*
X1002142Y502679D01*
X1001689Y501790D01*
X1001168Y500939D01*
X1000581Y500131D01*
X999933Y499373D01*
X999227Y498667D01*
X998469Y498019D01*
X997661Y497432D01*
X996810Y496911D01*
X995921Y496458D01*
X994999Y496076D01*
X994050Y495767D01*
X993080Y495534D01*
X992094Y495378D01*
X991099Y495300D01*
X990101Y495300D01*
X989106Y495378D01*
X988120Y495534D01*
X987150Y495767D01*
X986201Y496076D01*
X985279Y496458D01*
X984390Y496911D01*
X983539Y497432D01*
X982731Y498019D01*
X981973Y498667D01*
X981267Y499373D01*
X980619Y500131D01*
X980032Y500939D01*
X979511Y501790D01*
X979058Y502679D01*
X978676Y503601D01*
X978367Y504550D01*
X978134Y505520D01*
X977978Y506506D01*
X977900Y507501D01*
X977900Y508499D01*
X977900Y686299D02*
X977978Y687294D01*
X978134Y688280D01*
X978367Y689250D01*
X978676Y690199D01*
X979058Y691121D01*
X979511Y692010D01*
X980032Y692861D01*
X980619Y693669D01*
X981267Y694427D01*
X981973Y695133D01*
X982731Y695781D01*
X983539Y696368D01*
X984390Y696889D01*
X985279Y697342D01*
X986201Y697724D01*
X987150Y698033D01*
X988120Y698266D01*
X989106Y698422D01*
X990101Y698500D01*
X991099Y698500D01*
X992094Y698422D01*
X993080Y698266D01*
X994050Y698033D01*
X994999Y697724D01*
X995921Y697342D01*
X996810Y696889D01*
X997661Y696368D01*
X998469Y695781D01*
X999227Y695133D01*
X999933Y694427D01*
X1000581Y693669D01*
X1001168Y692861D01*
X1001689Y692010D01*
X1002142Y691121D01*
X1002524Y690199D01*
X1002833Y689250D01*
X1003066Y688280D01*
X1003222Y687294D01*
X1003300Y686299D01*
X1003300Y685301D01*
X1003222Y684306D01*
X1003066Y683320D01*
X1002833Y682350D01*
X1002524Y681401D01*
X1002142Y680479D01*
X1001689Y679590D01*
X1001168Y678739D01*
X1000581Y677931D01*
X999933Y677173D01*
X999227Y676467D01*
X998469Y675819D01*
X997661Y675232D01*
X996810Y674711D01*
X995921Y674258D01*
X994999Y673876D01*
X994050Y673567D01*
X993080Y673334D01*
X992094Y673178D01*
X991099Y673100D01*
X990101Y673100D01*
X989106Y673178D01*
X988120Y673334D01*
X987150Y673567D01*
X986201Y673876D01*
X985279Y674258D01*
X984390Y674711D01*
X983539Y675232D01*
X982731Y675819D01*
X981973Y676467D01*
X981267Y677173D01*
X980619Y677931D01*
X980032Y678739D01*
X979511Y679590D01*
X979058Y680479D01*
X978676Y681401D01*
X978367Y682350D01*
X978134Y683320D01*
X977978Y684306D01*
X977900Y685301D01*
X977900Y686299D01*
M02*
