G04 EAGLE Gerber RS-274X export*
G75*
%MOMM*%
%FSLAX34Y34*%
%LPD*%
%INSilkscreen Top*%
%IPPOS*%
%AMOC8*
5,1,8,0,0,1.08239X$1,22.5*%
G01*
%ADD10C,0.127000*%


D10*
X381000Y533400D02*
X533400Y533400D01*
X533400Y381000D01*
X381000Y381000D01*
X381000Y533400D01*
X736600Y533400D02*
X889000Y533400D01*
X889000Y381000D01*
X736600Y381000D01*
X736600Y533400D01*
X177800Y355600D02*
X25400Y355600D01*
X177800Y355600D02*
X177800Y203200D01*
X25400Y203200D01*
X25400Y355600D01*
X203200Y355600D02*
X355600Y355600D01*
X355600Y203200D01*
X203200Y203200D01*
X203200Y355600D01*
X381000Y355600D02*
X533400Y355600D01*
X533400Y203200D01*
X381000Y203200D01*
X381000Y355600D01*
X736600Y355600D02*
X889000Y355600D01*
X889000Y203200D01*
X736600Y203200D01*
X736600Y355600D01*
X914400Y355600D02*
X1066800Y355600D01*
X1066800Y203200D01*
X914400Y203200D01*
X914400Y355600D01*
X1092200Y355600D02*
X1244600Y355600D01*
X1244600Y203200D01*
X1092200Y203200D01*
X1092200Y355600D01*
X1270000Y419100D02*
X1422400Y419100D01*
X1422400Y266700D01*
X1270000Y266700D01*
X1270000Y419100D01*
X533400Y177800D02*
X381000Y177800D01*
X533400Y177800D02*
X533400Y25400D01*
X381000Y25400D01*
X381000Y177800D01*
X736600Y177800D02*
X889000Y177800D01*
X889000Y25400D01*
X736600Y25400D01*
X736600Y177800D01*
M02*
