G04 EAGLE Gerber RS-274X export*
G75*
%MOMM*%
%FSLAX34Y34*%
%LPD*%
%INSoldermask Top*%
%IPPOS*%
%AMOC8*
5,1,8,0,0,1.08239X$1,22.5*%
G01*
%ADD10C,2.743200*%
%ADD11C,2.774800*%
%ADD12C,4.203600*%
%ADD13C,4.013200*%
%ADD14C,1.981200*%


D10*
X419100Y482600D03*
X482600Y508000D03*
D11*
X406400Y457200D03*
X508000Y457200D03*
D12*
X457200Y457200D03*
D10*
X774700Y482600D03*
X838200Y508000D03*
D11*
X762000Y457200D03*
X863600Y457200D03*
D12*
X812800Y457200D03*
D10*
X63500Y304800D03*
X127000Y330200D03*
D11*
X50800Y279400D03*
X152400Y279400D03*
D12*
X101600Y279400D03*
D10*
X241300Y304800D03*
X304800Y330200D03*
D11*
X228600Y279400D03*
X330200Y279400D03*
D12*
X279400Y279400D03*
D10*
X419100Y304800D03*
X482600Y330200D03*
D11*
X406400Y279400D03*
X508000Y279400D03*
D12*
X457200Y279400D03*
D10*
X774700Y304800D03*
X838200Y330200D03*
D11*
X762000Y279400D03*
X863600Y279400D03*
D12*
X812800Y279400D03*
D10*
X952500Y304800D03*
X1016000Y330200D03*
D11*
X939800Y279400D03*
X1041400Y279400D03*
D12*
X990600Y279400D03*
D10*
X1130300Y304800D03*
X1193800Y330200D03*
D11*
X1117600Y279400D03*
X1219200Y279400D03*
D12*
X1168400Y279400D03*
D10*
X1308100Y368300D03*
X1371600Y393700D03*
D11*
X1295400Y342900D03*
X1397000Y342900D03*
D12*
X1346200Y342900D03*
D10*
X419100Y127000D03*
X482600Y152400D03*
D11*
X406400Y101600D03*
X508000Y101600D03*
D12*
X457200Y101600D03*
D10*
X774700Y127000D03*
X838200Y152400D03*
D11*
X762000Y101600D03*
X863600Y101600D03*
D12*
X812800Y101600D03*
D10*
X990600Y508000D03*
X990600Y685800D03*
D13*
X1447800Y508000D03*
X1447800Y685800D03*
D14*
X1308100Y495300D03*
X1282700Y495300D03*
X1257300Y495300D03*
X1231900Y495300D03*
X1206500Y495300D03*
X1181100Y495300D03*
X1155700Y495300D03*
X1130300Y495300D03*
X1104900Y495300D03*
X1079500Y495300D03*
X1054100Y495300D03*
X1028700Y495300D03*
X1308100Y698500D03*
X1282700Y698500D03*
X1257300Y698500D03*
X1231900Y698500D03*
X1206500Y698500D03*
X1181100Y698500D03*
X1155700Y698500D03*
X1130300Y698500D03*
X1104900Y698500D03*
X1079500Y698500D03*
X1054100Y698500D03*
X1028700Y698500D03*
X1333500Y698500D03*
X1358900Y698500D03*
X1384300Y698500D03*
X1409700Y698500D03*
M02*
