M48
;GenerationSoftware,Autodesk,EAGLE,9.5.1*%
;CreationDate,2019-10-26T01:50:38Z*%
FMAT,2
ICI,OFF
METRIC,TZ,000.000
T7C1.000
T6C1.500
T5C1.714
T4C2.500
T3C2.540
T2C4.000
%
G90
M71
T2
X81280Y45720
X10160Y27940
X27940Y27940
X45720Y27940
X81280Y27940
X99060Y27940
X116840Y27940
X134620Y34290
X45720Y10160
X81280Y10160
X45720Y45720
T3
X99060Y50800
X99060Y68580
T4
X144780Y50800
X144780Y68580
T5
X111760Y27940
X86360Y10160
X76200Y10160
X50800Y10160
X40640Y10160
X139700Y34290
X129540Y34290
X121920Y27940
X104140Y27940
X93980Y27940
X86360Y27940
X76200Y27940
X50800Y27940
X40640Y27940
X86360Y45720
X33020Y27940
X22860Y27940
X76200Y45720
X40640Y45720
X50800Y45720
X15240Y27940
X5080Y27940
T6
X77470Y12700
X41910Y12700
X48260Y15240
X83820Y50800
X77470Y48260
X48260Y33020
X83820Y15240
X48260Y50800
X41910Y48260
X130810Y36830
X137160Y39370
X41910Y30480
X77470Y30480
X83820Y33020
X30480Y33020
X24130Y30480
X101600Y33020
X113030Y30480
X119380Y33020
X12700Y33020
X6350Y30480
X95250Y30480
T7
X125730Y69850
X123190Y69850
X120650Y69850
X118110Y69850
X115570Y69850
X113030Y69850
X110490Y69850
X107950Y69850
X105410Y69850
X102870Y69850
X133350Y69850
X135890Y69850
X138430Y69850
X140970Y69850
X128270Y69850
X130810Y69850
X102870Y49530
X105410Y49530
X107950Y49530
X110490Y49530
X113030Y49530
X115570Y49530
X118110Y49530
X120650Y49530
X123190Y49530
X125730Y49530
X128270Y49530
X130810Y49530
M30